<svg width="400" height="224" viewBox="0 0 400 224" fill="none" xmlns="http://www.w3.org/2000/svg">
<g clip-path="url(#clip0)">
<path d="M68.5129 112.026C76.5282 112.026 83.0258 105.528 83.0258 97.5129C83.0258 89.4977 76.5282 83 68.5129 83C60.4977 83 54 89.4977 54 97.5129C54 105.528 60.4977 112.026 68.5129 112.026Z" fill="#A7B2BE"/>
<path d="M68.5129 141.052C76.5282 141.052 83.0258 134.554 83.0258 126.539C83.0258 118.524 76.5282 112.026 68.5129 112.026C60.4977 112.026 54 118.524 54 126.539C54 134.554 60.4977 141.052 68.5129 141.052Z" fill="#A7B2BE"/>
<path d="M130.628 123.843H150.087V118.544H137.055V93.4446H130.628V123.843Z" fill="#A7B2BE"/>
<path d="M163.272 124.288C170.188 124.288 174.493 119.553 174.493 112.532C174.493 105.467 170.188 100.747 163.272 100.747C156.355 100.747 152.051 105.467 152.051 112.532C152.051 119.553 156.355 124.288 163.272 124.288ZM163.301 119.39C160.11 119.39 158.478 116.466 158.478 112.488C158.478 108.51 160.11 105.571 163.301 105.571C166.433 105.571 168.066 108.51 168.066 112.488C168.066 116.466 166.433 119.39 163.301 119.39Z" fill="#A7B2BE"/>
<path d="M187.621 132.867C194.137 132.867 198.768 129.898 198.768 124.065V101.044H192.49V104.873H192.252C191.406 103.018 189.55 100.747 185.736 100.747C180.734 100.747 176.504 104.636 176.504 112.399C176.504 119.983 180.615 123.516 185.751 123.516C189.387 123.516 191.421 121.69 192.252 119.805H192.519V123.976C192.519 127.108 190.515 128.325 187.769 128.325C184.979 128.325 183.569 127.108 183.049 125.727L177.202 126.514C177.959 130.106 181.476 132.867 187.621 132.867ZM187.755 118.766C184.653 118.766 182.96 116.302 182.96 112.369C182.96 108.495 184.623 105.779 187.755 105.779C190.827 105.779 192.549 108.376 192.549 112.369C192.549 116.391 190.797 118.766 187.755 118.766Z" fill="#A7B2BE"/>
<path d="M212.847 124.288C219.764 124.288 224.068 119.553 224.068 112.532C224.068 105.467 219.764 100.747 212.847 100.747C205.93 100.747 201.626 105.467 201.626 112.532C201.626 119.553 205.93 124.288 212.847 124.288ZM212.876 119.39C209.685 119.39 208.053 116.466 208.053 112.488C208.053 108.51 209.685 105.571 212.876 105.571C216.008 105.571 217.641 108.51 217.641 112.488C217.641 116.466 216.008 119.39 212.876 119.39Z" fill="#A7B2BE"/>
<path d="M226.925 123.842H233.248V101.044H226.925V123.842ZM230.102 98.105C231.986 98.105 233.53 96.6653 233.53 94.899C233.53 93.1475 231.986 91.7078 230.102 91.7078C228.231 91.7078 226.688 93.1475 226.688 94.899C226.688 96.6653 228.231 98.105 230.102 98.105Z" fill="#A7B2BE"/>
<path d="M237.06 132.392H243.383V120.191H243.576C244.451 122.091 246.366 124.213 250.047 124.213C255.242 124.213 259.294 120.102 259.294 112.473C259.294 104.636 255.064 100.747 250.062 100.747C246.247 100.747 244.422 103.018 243.576 104.873H243.294V101.044H237.06V132.392ZM243.249 112.443C243.249 108.376 244.971 105.779 248.044 105.779C251.175 105.779 252.837 108.495 252.837 112.443C252.837 116.421 251.145 119.182 248.044 119.182C245 119.182 243.249 116.51 243.249 112.443Z" fill="#A7B2BE"/>
<path d="M281.225 107.545C280.66 103.345 277.277 100.747 271.517 100.747C265.684 100.747 261.84 103.448 261.854 107.842C261.84 111.256 263.992 113.467 268.445 114.358L272.393 115.145C274.382 115.545 275.288 116.273 275.317 117.416C275.288 118.766 273.818 119.731 271.607 119.731C269.35 119.731 267.851 118.766 267.465 116.911L261.246 117.237C261.84 121.601 265.551 124.288 271.591 124.288C277.499 124.288 281.729 121.275 281.744 116.777C281.729 113.482 279.577 111.508 275.154 110.603L271.027 109.771C268.905 109.311 268.118 108.584 268.133 107.486C268.118 106.12 269.662 105.23 271.621 105.23C273.818 105.23 275.124 106.432 275.436 107.901L281.225 107.545Z" fill="#A7B2BE"/>
<path d="M299.092 114.135C299.107 117.193 297.014 118.796 294.743 118.796C292.353 118.796 290.81 117.119 290.795 114.432V101.044H284.472V115.56C284.487 120.889 287.604 124.139 292.19 124.139C295.619 124.139 298.082 122.373 299.107 119.701H299.345V123.842H305.415V101.044H299.092V114.135Z" fill="#A7B2BE"/>
<path d="M309.218 123.842H315.541V110.157C315.541 107.634 317.144 105.957 319.252 105.957C321.33 105.957 322.725 107.382 322.725 109.623V123.842H328.855V109.92C328.855 107.56 330.206 105.957 332.506 105.957C334.525 105.957 336.039 107.219 336.039 109.757V123.842H342.347V108.51C342.347 103.567 339.408 100.747 335.163 100.747C331.824 100.747 329.226 102.454 328.291 105.066H328.053C327.326 102.424 324.996 100.747 321.864 100.747C318.792 100.747 316.461 102.38 315.511 105.066H315.244V101.044H309.218V123.842Z" fill="#A7B2BE"/>
<path d="M83.0254 83H112.051L83.0254 112.026V83Z" fill="#A7B2BE"/>
<path d="M97.5383 141.052C105.554 141.052 112.051 134.554 112.051 126.539C112.051 118.524 105.554 112.026 97.5383 112.026C89.523 112.026 83.0254 118.524 83.0254 126.539C83.0254 134.554 89.523 141.052 97.5383 141.052Z" fill="#A7B2BE"/>
<path d="M130.628 123.843H150.087V118.544H137.055V93.4446H130.628V123.843Z" fill="#A7B2BE"/>
<path d="M163.272 124.288C170.188 124.288 174.493 119.553 174.493 112.532C174.493 105.467 170.188 100.747 163.272 100.747C156.355 100.747 152.051 105.467 152.051 112.532C152.051 119.553 156.355 124.288 163.272 124.288ZM163.301 119.39C160.11 119.39 158.478 116.466 158.478 112.488C158.478 108.51 160.11 105.571 163.301 105.571C166.433 105.571 168.066 108.51 168.066 112.488C168.066 116.466 166.433 119.39 163.301 119.39Z" fill="#A7B2BE"/>
<path d="M187.621 132.867C194.137 132.867 198.768 129.898 198.768 124.065V101.044H192.49V104.873H192.252C191.406 103.018 189.55 100.747 185.736 100.747C180.734 100.747 176.504 104.636 176.504 112.399C176.504 119.983 180.615 123.516 185.751 123.516C189.387 123.516 191.421 121.69 192.252 119.805H192.519V123.976C192.519 127.108 190.515 128.325 187.769 128.325C184.979 128.325 183.569 127.108 183.049 125.727L177.202 126.514C177.959 130.106 181.476 132.867 187.621 132.867ZM187.755 118.766C184.653 118.766 182.96 116.302 182.96 112.369C182.96 108.495 184.623 105.779 187.755 105.779C190.827 105.779 192.549 108.376 192.549 112.369C192.549 116.391 190.797 118.766 187.755 118.766Z" fill="#A7B2BE"/>
<path d="M212.847 124.288C219.764 124.288 224.068 119.553 224.068 112.532C224.068 105.467 219.764 100.747 212.847 100.747C205.93 100.747 201.626 105.467 201.626 112.532C201.626 119.553 205.93 124.288 212.847 124.288ZM212.876 119.39C209.685 119.39 208.053 116.466 208.053 112.488C208.053 108.51 209.685 105.571 212.876 105.571C216.008 105.571 217.641 108.51 217.641 112.488C217.641 116.466 216.008 119.39 212.876 119.39Z" fill="#A7B2BE"/>
<path d="M226.925 123.842H233.248V101.044H226.925V123.842ZM230.102 98.105C231.986 98.105 233.53 96.6653 233.53 94.899C233.53 93.1475 231.986 91.7078 230.102 91.7078C228.231 91.7078 226.688 93.1475 226.688 94.899C226.688 96.6653 228.231 98.105 230.102 98.105Z" fill="#A7B2BE"/>
<path d="M237.06 132.392H243.383V120.191H243.576C244.451 122.091 246.366 124.213 250.047 124.213C255.242 124.213 259.294 120.102 259.294 112.473C259.294 104.636 255.064 100.747 250.062 100.747C246.247 100.747 244.422 103.018 243.576 104.873H243.294V101.044H237.06V132.392ZM243.249 112.443C243.249 108.376 244.971 105.779 248.044 105.779C251.175 105.779 252.837 108.495 252.837 112.443C252.837 116.421 251.145 119.182 248.044 119.182C245 119.182 243.249 116.51 243.249 112.443Z" fill="#A7B2BE"/>
<path d="M281.225 107.545C280.66 103.345 277.277 100.747 271.517 100.747C265.684 100.747 261.84 103.448 261.854 107.842C261.84 111.256 263.992 113.467 268.445 114.358L272.393 115.145C274.382 115.545 275.288 116.273 275.317 117.416C275.288 118.766 273.818 119.731 271.607 119.731C269.35 119.731 267.851 118.766 267.465 116.911L261.246 117.237C261.84 121.601 265.551 124.288 271.591 124.288C277.499 124.288 281.729 121.275 281.744 116.777C281.729 113.482 279.577 111.508 275.154 110.603L271.027 109.771C268.905 109.311 268.118 108.584 268.133 107.486C268.118 106.12 269.662 105.23 271.621 105.23C273.818 105.23 275.124 106.432 275.436 107.901L281.225 107.545Z" fill="#A7B2BE"/>
<path d="M299.092 114.135C299.107 117.193 297.014 118.796 294.743 118.796C292.353 118.796 290.81 117.119 290.795 114.432V101.044H284.472V115.56C284.487 120.889 287.604 124.139 292.19 124.139C295.619 124.139 298.082 122.373 299.107 119.701H299.345V123.842H305.415V101.044H299.092V114.135Z" fill="#A7B2BE"/>
<path d="M309.218 123.842H315.541V110.157C315.541 107.634 317.144 105.957 319.252 105.957C321.33 105.957 322.725 107.382 322.725 109.623V123.842H328.855V109.92C328.855 107.56 330.206 105.957 332.506 105.957C334.525 105.957 336.039 107.219 336.039 109.757V123.842H342.347V108.51C342.347 103.567 339.408 100.747 335.163 100.747C331.824 100.747 329.226 102.454 328.291 105.066H328.053C327.326 102.424 324.996 100.747 321.864 100.747C318.792 100.747 316.461 102.38 315.511 105.066H315.244V101.044H309.218V123.842Z" fill="#A7B2BE"/>
</g>
<defs>
<clipPath id="clip0">
<rect width="292" height="58.0517" fill="white" transform="translate(54 83)"/>
</clipPath>
</defs>
</svg>
