<svg width="1317" height="330" viewBox="0 0 1317 330" fill="none" xmlns="http://www.w3.org/2000/svg">
<path d="M698.506 88.5115H721.798V110.897C728.654 101.418 735.814 94.5615 743.276 90.3265C750.939 86.0915 760.014 83.974 770.501 83.974C790.062 83.974 804.279 92.0407 813.153 108.174C820.614 99.3007 827.976 93.049 835.236 89.419C842.496 85.789 851.369 83.974 861.856 83.974C876.577 83.974 887.871 87.8057 895.736 95.469C903.802 102.931 907.836 113.821 907.836 128.139V247.021H882.426V137.819C882.426 127.736 879.804 119.972 874.561 114.527C869.519 108.88 862.359 106.057 853.083 106.057C842.798 106.057 834.026 110.09 826.766 118.157C819.506 126.223 815.876 136.004 815.876 147.499V247.021H790.466V137.819C790.466 127.736 787.844 119.972 782.601 114.527C777.559 108.88 770.399 106.057 761.123 106.057C750.838 106.057 742.066 110.09 734.806 118.157C727.546 126.223 723.916 136.004 723.916 147.499V247.021H698.506V88.5115ZM948.977 135.399C950.187 101.116 971.362 83.974 1012.5 83.974C1032.06 83.974 1046.89 87.7048 1056.97 95.1665C1067.05 102.427 1072.09 113.115 1072.09 127.232V220.401C1072.09 228.669 1076.63 232.804 1085.71 232.804C1087.52 232.804 1089.34 232.602 1091.15 232.199V251.256C1084.09 253.071 1078.35 253.979 1073.91 253.979C1065.84 253.979 1059.69 252.064 1055.46 248.231C1051.42 244.601 1048.9 238.754 1047.89 230.686C1030.95 246.214 1013.01 253.979 994.05 253.979C978.119 253.979 965.414 249.744 955.935 241.274C946.659 232.804 942.02 221.409 942.02 207.091C942.02 202.454 942.424 198.219 943.23 194.386C944.239 190.554 945.247 187.227 946.255 184.404C947.465 181.379 949.482 178.656 952.305 176.236C955.129 173.614 957.447 171.497 959.262 169.884C961.279 168.271 964.507 166.759 968.942 165.346C973.582 163.734 977.11 162.624 979.53 162.019C981.95 161.212 986.185 160.304 992.235 159.296C998.285 158.289 1002.72 157.582 1005.54 157.179C1008.37 156.776 1013.41 156.069 1020.67 155.061C1030.55 153.851 1037.41 151.936 1041.24 149.314C1045.07 146.692 1046.99 142.759 1046.99 137.516V130.862C1046.99 123.198 1043.86 117.35 1037.61 113.317C1031.56 109.283 1022.89 107.267 1011.59 107.267C999.899 107.267 991.025 109.586 984.975 114.224C978.925 118.661 975.397 125.719 974.387 135.399H948.977ZM999.495 231.896C1013.41 231.896 1024.8 228.266 1033.68 221.006C1042.55 213.544 1046.99 205.579 1046.99 197.109V168.674C1041.95 171.094 1034.28 173.111 1024 174.724C1013.91 176.337 1005.14 177.749 997.68 178.959C990.219 180.169 983.462 183.094 977.412 187.731C971.362 192.169 968.337 198.419 968.337 206.486C968.337 214.554 971.06 220.804 976.505 225.241C981.95 229.679 989.614 231.896 999.495 231.896ZM1143.38 26.499V247.021H1117.97V26.499H1143.38ZM1281.83 88.5115H1309.06L1238.57 280.296C1230.31 302.076 1216.69 312.966 1197.74 312.966C1191.48 312.966 1185.84 311.656 1180.8 309.034V286.346C1186.24 287.556 1190.68 288.161 1194.11 288.161C1199.35 288.161 1203.48 286.951 1206.51 284.531C1209.53 282.314 1212.16 278.381 1214.37 272.734L1224.05 247.626L1170.51 88.5115H1197.43L1237.97 211.931L1281.83 88.5115Z" fill="#1D1D1F"/>
<path d="M698.5 88.5125V83.0125H693V88.5125H698.5ZM721.792 88.5125H727.292V83.0125H721.792V88.5125ZM721.792 110.898H716.292V127.884L726.249 114.121L721.792 110.898ZM743.27 90.3275L740.609 85.5134L740.554 85.5443L743.27 90.3275ZM813.147 108.175L808.328 110.826L812.193 117.854L817.356 111.715L813.147 108.175ZM895.73 95.47L891.89 99.4106L891.994 99.5075L895.73 95.47ZM907.83 247.023V252.523H913.33V247.023H907.83ZM882.42 247.023H876.92V252.523H882.42V247.023ZM874.555 114.528L870.452 118.191L870.521 118.268L870.592 118.343L874.555 114.528ZM815.87 247.023V252.523H821.37V247.023H815.87ZM790.46 247.023H784.96V252.523H790.46V247.023ZM782.595 114.528L778.492 118.191L778.561 118.268L778.632 118.343L782.595 114.528ZM723.91 247.023V252.523H729.41V247.023H723.91ZM698.5 247.023H693V252.523H698.5V247.023ZM698.5 94.0125H721.792V83.0125H698.5V94.0125ZM716.292 88.5125V110.898H727.292V88.5125H716.292ZM726.249 114.121C732.801 105.063 739.409 98.8423 745.984 95.1107L740.554 85.5443C732.205 90.2827 724.496 97.7757 717.336 107.674L726.249 114.121ZM745.929 95.1414C752.632 91.4376 760.754 89.475 770.495 89.475V78.475C759.261 78.475 749.233 80.7472 740.609 85.5134L745.929 95.1414ZM770.495 89.475C779.511 89.475 786.983 91.3293 793.115 94.8086C799.23 98.2782 804.319 103.535 808.328 110.826L817.965 105.524C813.102 96.6814 806.645 89.8386 798.544 85.2414C790.457 80.654 781.04 78.475 770.495 78.475V89.475ZM817.356 111.715C824.527 103.188 831.324 97.5223 837.689 94.3393L832.77 84.5007C824.616 88.5777 816.691 95.4149 808.937 104.635L817.356 111.715ZM837.689 94.3393C843.996 91.1861 851.976 89.475 861.85 89.475V78.475C850.75 78.475 840.983 80.394 832.77 84.5007L837.689 94.3393ZM861.85 89.475C875.638 89.475 885.364 93.0493 891.891 99.4092L899.568 91.5308C890.365 82.5641 877.503 78.475 861.85 78.475V89.475ZM891.994 99.5075C898.62 105.637 902.33 114.865 902.33 128.14H913.33C913.33 112.779 908.971 100.227 899.464 91.4325L891.994 99.5075ZM902.33 128.14V247.023H913.33V128.14H902.33ZM907.83 241.523H882.42V252.523H907.83V241.523ZM887.92 247.023V137.82H876.92V247.023H887.92ZM887.92 137.82C887.92 126.802 885.039 117.487 878.516 110.712L870.592 118.343C874.556 122.458 876.92 128.671 876.92 137.82H887.92ZM878.657 110.864C872.341 103.791 863.538 100.558 853.077 100.558V111.558C861.169 111.558 866.684 113.97 870.452 118.191L878.657 110.864ZM853.077 100.558C841.138 100.558 830.91 105.325 822.671 114.478L830.848 121.837C837.13 114.857 844.445 111.558 853.077 111.558V100.558ZM822.671 114.478C814.445 123.618 810.37 134.734 810.37 147.5H821.37C821.37 137.276 824.553 128.83 830.848 121.837L822.671 114.478ZM810.37 147.5V247.023H821.37V147.5H810.37ZM815.87 241.523H790.46V252.523H815.87V241.523ZM795.96 247.023V137.82H784.96V247.023H795.96ZM795.96 137.82C795.96 126.802 793.079 117.487 786.556 110.712L778.632 118.343C782.596 122.458 784.96 128.671 784.96 137.82H795.96ZM786.697 110.864C780.381 103.791 771.578 100.558 761.117 100.558V111.558C769.209 111.558 774.724 113.97 778.492 118.191L786.697 110.864ZM761.117 100.558C749.178 100.558 738.95 105.325 730.711 114.478L738.888 121.837C745.17 114.857 752.485 111.558 761.117 111.558V100.558ZM730.711 114.478C722.486 123.618 718.41 134.734 718.41 147.5H729.41C729.41 137.276 732.593 128.83 738.888 121.837L730.711 114.478ZM718.41 147.5V247.023H729.41V147.5H718.41ZM723.91 241.523H698.5V252.523H723.91V241.523ZM704 247.023V88.5125H693V247.023H704ZM948.971 135.4L943.475 135.206L943.275 140.9H948.971V135.4ZM1056.96 95.1675L1053.69 99.589L1053.75 99.6309L1056.96 95.1675ZM1091.15 232.2H1096.65V225.344L1089.95 226.831L1091.15 232.2ZM1091.15 251.258L1092.52 256.584L1096.65 255.523V251.258H1091.15ZM1055.45 248.232L1059.14 244.154L1059.13 244.145L1055.45 248.232ZM1047.89 230.688L1053.35 230.006L1052.03 219.435L1044.17 226.633L1047.89 230.688ZM955.929 241.275L952.22 245.337L952.265 245.377L955.929 241.275ZM943.224 194.388L937.905 192.988L937.871 193.12L937.842 193.255L943.224 194.388ZM946.249 184.405L941.142 182.362L941.105 182.458L941.069 182.556L946.249 184.405ZM952.299 176.238L955.879 180.413L955.962 180.342L956.042 180.268L952.299 176.238ZM959.256 169.885L955.822 165.591L955.71 165.679L955.603 165.774L959.256 169.885ZM968.936 165.348L970.606 170.59L970.743 170.542L968.936 165.348ZM979.524 162.02L980.859 167.356L981.064 167.304L981.263 167.238L979.524 162.02ZM1020.66 155.063L1020 149.602L1019.91 149.615L1020.66 155.063ZM1037.6 113.318L1034.55 117.894L1034.62 117.939L1037.6 113.318ZM984.969 114.225L988.222 118.661L988.316 118.59L984.969 114.225ZM974.381 135.4V140.9H979.338L979.852 135.97L974.381 135.4ZM1033.67 221.008L1037.16 225.265L1037.21 225.216L1033.67 221.008ZM1046.98 168.675H1052.48V159.934L1044.6 163.717L1046.98 168.675ZM1023.99 174.725L1023.14 169.291L1023.12 169.294L1023.99 174.725ZM977.406 187.732L980.66 192.168L980.753 192.097L977.406 187.732ZM954.469 135.594C955.032 119.599 960.179 108.426 969.221 101.106C978.44 93.6435 992.571 89.475 1012.5 89.475V78.475C991.282 78.475 974.256 82.8773 962.301 92.5564C950.168 102.378 944.12 116.918 943.475 135.206L954.469 135.594ZM1012.5 89.475C1031.5 89.475 1044.95 93.122 1053.69 99.589L1060.24 90.7463C1048.81 82.2898 1032.62 78.475 1012.5 78.475V89.475ZM1053.75 99.6309C1062.19 105.705 1066.59 114.607 1066.59 127.233H1077.59C1077.59 111.624 1071.91 99.1498 1060.18 90.7041L1053.75 99.6309ZM1066.59 127.233V220.402H1077.59V127.233H1066.59ZM1066.59 220.402C1066.59 225.523 1068.02 230.334 1071.79 233.77C1075.46 237.117 1080.44 238.305 1085.7 238.305V227.305C1081.89 227.305 1080.06 226.426 1079.2 225.639C1078.43 224.94 1077.59 223.55 1077.59 220.402H1066.59ZM1085.7 238.305C1087.93 238.305 1090.14 238.058 1092.34 237.569L1089.95 226.831C1088.52 227.15 1087.11 227.305 1085.7 227.305V238.305ZM1085.65 232.2V251.258H1096.65V232.2H1085.65ZM1089.78 245.931C1082.92 247.695 1077.68 248.48 1073.9 248.48V259.48C1079 259.48 1085.26 258.45 1092.52 256.584L1089.78 245.931ZM1073.9 248.48C1066.64 248.48 1062.02 246.754 1059.14 244.154L1051.76 252.311C1057.36 257.375 1065.04 259.48 1073.9 259.48V248.48ZM1059.13 244.145C1056.47 241.748 1054.27 237.393 1053.35 230.006L1042.43 231.37C1043.52 240.116 1046.37 247.457 1051.77 252.32L1059.13 244.145ZM1044.17 226.633C1028.02 241.44 1011.35 248.48 994.044 248.48V259.48C1014.66 259.48 1033.88 250.992 1051.61 234.742L1044.17 226.633ZM994.044 248.48C979.109 248.48 967.828 244.531 959.595 237.173L952.265 245.377C962.988 254.959 977.116 259.48 994.044 259.48V248.48ZM959.637 237.213C951.668 229.935 947.514 220.104 947.514 207.092H936.514C936.514 222.718 941.638 235.675 952.22 245.337L959.637 237.213ZM947.514 207.092C947.514 202.767 947.891 198.92 948.607 195.521L937.842 193.255C936.944 197.52 936.514 202.141 936.514 207.092H947.514ZM948.544 195.787C949.524 192.062 950.487 188.892 951.428 186.254L941.069 182.556C939.995 185.564 938.942 189.05 937.905 192.988L948.544 195.787ZM951.356 186.448C952.193 184.357 953.633 182.338 955.879 180.413L948.72 172.062C945.319 174.977 942.726 178.403 941.142 182.362L951.356 186.448ZM956.042 180.268C958.851 177.659 961.137 175.572 962.911 173.996L955.603 165.774C953.747 167.425 951.394 169.572 948.558 172.207L956.042 180.268ZM962.693 174.179C963.918 173.199 966.379 171.932 970.604 170.589L967.27 160.106C962.621 161.586 958.629 163.344 955.822 165.591L962.693 174.179ZM970.743 170.542C975.345 168.942 978.685 167.9 980.859 167.356L978.19 156.684C975.524 157.351 971.806 158.526 967.13 160.153L970.743 170.542ZM981.263 167.238C983.232 166.582 987.084 165.731 993.134 164.723L991.326 153.872C985.276 154.881 980.657 155.845 977.784 156.802L981.263 167.238ZM993.134 164.723C999.178 163.715 1003.56 163.018 1006.32 162.625L1004.76 151.735C1001.87 152.149 997.381 152.863 991.326 153.872L993.134 164.723ZM1006.32 162.625C1009.13 162.224 1014.16 161.518 1021.42 160.51L1019.91 149.615C1012.65 150.623 1007.6 151.331 1004.76 151.735L1006.32 162.625ZM1021.33 160.521C1031.31 159.3 1039.33 157.282 1044.34 153.854L1038.13 144.776C1035.47 146.591 1029.79 148.405 1020 149.604L1021.33 160.521ZM1044.34 153.854C1049.88 150.062 1052.48 144.303 1052.48 137.518H1041.48C1041.48 141.219 1040.25 143.324 1038.13 144.776L1044.34 153.854ZM1052.48 137.518V130.863H1041.48V137.518H1052.48ZM1052.48 130.863C1052.48 121.399 1048.46 113.778 1040.59 108.696L1034.62 117.939C1039.25 120.923 1041.48 125 1041.48 130.863H1052.48ZM1040.65 108.741C1033.33 103.857 1023.41 101.768 1011.59 101.768V112.768C1022.35 112.768 1029.78 114.711 1034.55 117.894L1040.65 108.741ZM1011.59 101.768C999.294 101.768 989.025 104.185 981.624 109.86L988.316 118.59C993.013 114.988 1000.49 112.768 1011.59 112.768V101.768ZM981.717 109.79C974.069 115.398 970.029 124.093 968.912 134.83L979.852 135.97C980.75 127.347 983.77 121.925 988.222 118.66L981.717 109.79ZM974.381 129.9H948.971V140.9H974.381V129.9ZM999.489 237.398C1014.39 237.398 1027.1 233.49 1037.15 225.265L1030.19 216.751C1022.5 223.045 1012.42 226.398 999.489 226.398V237.398ZM1037.21 225.216C1046.85 217.116 1052.48 207.743 1052.48 197.11H1041.48C1041.48 203.417 1038.24 209.976 1030.13 216.799L1037.21 225.216ZM1052.48 197.11V168.675H1041.48V197.11H1052.48ZM1044.6 163.717C1040.29 165.785 1033.27 167.703 1023.14 169.291L1024.84 180.159C1035.29 178.52 1043.59 176.405 1049.36 173.633L1044.6 163.717ZM1023.12 169.294C1013.04 170.908 1004.26 172.32 996.794 173.532L998.555 184.389C1006.01 183.18 1014.78 181.769 1024.86 180.156L1023.12 169.294ZM996.794 173.532C988.427 174.887 980.826 178.182 974.061 183.368L980.753 192.097C986.088 188.008 991.998 185.453 998.555 184.389L996.794 173.532ZM974.154 183.297C966.573 188.857 962.831 196.823 962.831 206.488H973.831C973.831 200.02 976.141 195.481 980.66 192.168L974.154 183.297ZM962.831 206.488C962.831 215.932 966.098 223.862 973.026 229.506L979.974 220.979C976.009 217.749 973.831 213.177 973.831 206.488H962.831ZM973.026 229.506C979.784 235.013 988.849 237.398 999.489 237.398V226.398C990.367 226.398 984.105 224.346 979.974 220.979L973.026 229.506ZM1143.38 26.5H1148.88V21H1143.38V26.5ZM1143.38 247.023V252.523H1148.88V247.023H1143.38ZM1117.97 247.023H1112.47V252.523H1117.97V247.023ZM1117.97 26.5V21H1112.47V26.5H1117.97ZM1137.88 26.5V247.023H1148.88V26.5H1137.88ZM1143.38 241.523H1117.97V252.523H1143.38V241.523ZM1123.47 247.023V26.5H1112.47V247.023H1123.47ZM1117.97 32H1143.38V21H1117.97V32ZM1281.83 88.5125V83.0125H1277.94L1276.64 86.6707L1281.83 88.5125ZM1309.05 88.5125L1314.21 90.4097L1316.93 83.0125H1309.05V88.5125ZM1238.57 280.298L1243.71 282.25L1243.73 282.195L1238.57 280.298ZM1180.79 309.035H1175.29V312.374L1178.25 313.915L1180.79 309.035ZM1180.79 286.348L1181.98 280.978L1175.29 279.492V286.348H1180.79ZM1206.5 284.533L1203.25 280.097L1203.16 280.166L1203.07 280.238L1206.5 284.533ZM1214.37 272.735L1219.49 274.747L1219.5 274.714L1214.37 272.735ZM1224.05 247.628L1229.18 249.606L1229.89 247.754L1229.26 245.873L1224.05 247.628ZM1170.51 88.5125V83.0125H1162.85L1165.29 90.2666L1170.51 88.5125ZM1197.43 88.5125L1202.65 86.7964L1201.41 83.0125H1197.43V88.5125ZM1237.96 211.933L1232.74 213.648L1237.76 228.934L1243.15 213.774L1237.96 211.933ZM1281.83 94.0125H1309.05V83.0125H1281.83V94.0125ZM1303.89 86.6153L1233.41 278.4L1243.73 282.195L1314.21 90.4097L1303.89 86.6153ZM1233.43 278.345C1229.53 288.615 1224.54 295.847 1218.72 300.506C1212.98 305.1 1206.08 307.468 1197.73 307.468V318.467C1208.34 318.467 1217.72 315.39 1225.59 309.094C1233.38 302.863 1239.34 293.76 1243.71 282.25L1233.43 278.345ZM1197.73 307.468C1192.27 307.468 1187.51 306.33 1183.33 304.155L1178.25 313.915C1184.16 316.984 1190.69 318.467 1197.73 318.467V307.468ZM1186.29 309.035V286.348H1175.29V309.035H1186.29ZM1179.6 291.717C1185.22 292.967 1190.1 293.663 1194.1 293.663V282.663C1191.24 282.663 1187.25 282.148 1181.98 280.978L1179.6 291.717ZM1194.1 293.663C1200.15 293.663 1205.64 292.264 1209.94 288.827L1203.07 280.238C1201.31 281.641 1198.54 282.663 1194.1 282.663V293.663ZM1209.76 288.968C1213.99 285.862 1217.1 280.82 1219.49 274.747L1209.25 270.723C1207.2 275.943 1205.07 278.766 1203.25 280.097L1209.76 288.968ZM1219.5 274.714L1229.18 249.606L1218.92 245.649L1209.24 270.756L1219.5 274.714ZM1229.26 245.873L1175.72 86.7584L1165.29 90.2666L1218.84 249.382L1229.26 245.873ZM1170.51 94.0125H1197.43V83.0125H1170.51V94.0125ZM1192.2 90.2286L1232.74 213.648L1243.19 210.217L1202.65 86.7964L1192.2 90.2286ZM1243.15 213.774L1287.01 90.3543L1276.64 86.6707L1232.78 210.091L1243.15 213.774Z" fill="#1D1D1F"/>
<path d="M12.4634 135.924C13.6734 101.641 34.8484 84.499 75.9884 84.499C95.5501 84.499 110.373 88.2298 120.456 95.6915C130.538 102.952 135.58 113.64 135.58 127.757V220.926C135.58 229.194 140.118 233.329 149.193 233.329C151.008 233.329 152.823 233.127 154.638 232.724V251.781C147.58 253.596 141.833 254.504 137.395 254.504C129.329 254.504 123.178 252.589 118.943 248.756C114.91 245.126 112.389 239.279 111.381 231.211C94.4409 246.739 76.4926 254.504 57.5359 254.504C41.6042 254.504 28.8992 250.269 19.4209 241.799C10.1442 233.329 5.50586 221.934 5.50586 207.616C5.50586 202.979 5.90919 198.744 6.71589 194.911C7.72417 191.079 8.7326 187.752 9.74089 184.929C10.9509 181.904 12.9676 179.181 15.7909 176.761C18.6142 174.139 20.9334 172.022 22.7484 170.409C24.7651 168.796 27.9917 167.284 32.4284 165.871C37.0667 164.259 40.5959 163.149 43.0159 162.544C45.4359 161.737 49.6709 160.829 55.7209 159.821C61.7709 158.814 66.2076 158.107 69.0309 157.704C71.8542 157.301 76.8959 156.594 84.1559 155.586C94.0376 154.376 100.894 152.461 104.726 149.839C108.558 147.217 110.473 143.284 110.473 138.041V131.387C110.473 123.723 107.348 117.875 101.096 113.842C95.0459 109.808 86.3742 107.792 75.0809 107.792C63.3842 107.792 54.5109 110.111 48.4609 114.749C42.4109 119.186 38.8817 126.244 37.8734 135.924H12.4634ZM62.9809 232.421C76.8959 232.421 88.2901 228.791 97.1634 221.531C106.037 214.069 110.473 206.104 110.473 197.634V169.199C105.432 171.619 97.7684 173.636 87.4834 175.249C77.4001 176.862 68.6276 178.274 61.1659 179.484C53.7042 180.694 46.9484 183.618 40.8984 188.256C34.8484 192.694 31.8234 198.944 31.8234 207.011C31.8234 215.079 34.5459 221.329 39.9909 225.766C45.4359 230.204 53.0992 232.421 62.9809 232.421ZM179.11 89.0365H202.403V115.657C209.461 104.565 217.023 96.599 225.09 91.759C233.358 86.919 243.341 84.499 255.038 84.499C270.363 84.499 282.565 88.4315 291.64 96.2965C300.715 104.162 305.253 114.648 305.253 127.757V247.546H280.145V137.739C280.145 128.261 277.221 120.698 271.373 115.052C265.523 109.405 257.558 106.582 247.475 106.582C234.568 106.582 224.183 111.522 216.318 121.404C208.453 131.084 204.52 143.991 204.52 160.124V247.546H179.11V89.0365Z" fill="#1D1D1F"/>
<path d="M12.4576 135.925L6.96099 135.731L6.75997 141.425H12.4576V135.925ZM120.45 95.6925L117.178 100.114L117.236 100.156L120.45 95.6925ZM154.632 232.725H160.132V225.869L153.439 227.356L154.632 232.725ZM154.632 251.783L156.002 257.109L160.132 256.048V251.783H154.632ZM118.938 248.757L122.628 244.679L122.617 244.67L118.938 248.757ZM111.375 231.213L116.833 230.531L115.511 219.96L107.659 227.158L111.375 231.213ZM19.4151 241.8L15.7064 245.862L15.7503 245.902L19.4151 241.8ZM6.71005 194.913L1.39109 193.513L1.35622 193.645L1.32797 193.779L6.71005 194.913ZM9.73506 184.93L4.62837 182.887L4.59009 182.983L4.55542 183.081L9.73506 184.93ZM15.7851 176.762L19.3645 180.938L19.4474 180.867L19.5275 180.793L15.7851 176.762ZM22.7426 170.41L19.3067 166.116L19.1952 166.204L19.0885 166.299L22.7426 170.41ZM32.4226 165.873L34.0907 171.115L34.2294 171.067L32.4226 165.873ZM43.0101 162.545L44.3439 167.881L44.549 167.829L44.7493 167.763L43.0101 162.545ZM84.1501 155.588L83.4815 150.127L83.3934 150.14L84.1501 155.588ZM101.09 113.842L98.0389 118.419L98.1084 118.464L101.09 113.842ZM48.4551 114.75L51.7083 119.186L51.8014 119.115L48.4551 114.75ZM37.8676 135.925V141.425H42.8244L43.338 136.495L37.8676 135.925ZM97.1576 221.533L100.641 225.79L100.697 225.741L97.1576 221.533ZM110.468 169.2H115.968V160.459L108.088 164.242L110.468 169.2ZM87.4776 175.25L86.6252 169.816L86.6086 169.819L87.4776 175.25ZM40.8926 188.257L44.1458 192.693L44.2389 192.622L40.8926 188.257ZM17.9541 136.119C18.5187 120.124 23.6648 108.951 32.7069 101.631C41.9253 94.1684 56.0574 90 75.9826 90V79C54.7677 79 37.7423 83.4023 25.7857 93.0814C13.6528 102.903 7.60642 117.443 6.96099 135.731L17.9541 136.119ZM75.9826 90C94.982 90 108.439 93.647 117.178 100.114L123.722 91.2713C112.294 82.8148 96.1064 79 75.9826 79V90ZM117.236 100.156C125.673 106.23 130.075 115.132 130.075 127.757H141.075C141.075 112.149 135.393 99.6748 123.664 91.2291L117.236 100.156ZM130.075 127.757V220.927H141.075V127.757H130.075ZM130.075 220.927C130.075 226.048 131.503 230.859 135.274 234.295C138.946 237.642 143.922 238.83 149.187 238.83V227.83C145.377 227.83 143.547 226.951 142.682 226.163C141.915 225.465 141.075 224.075 141.075 220.927H130.075ZM149.187 238.83C151.413 238.83 153.628 238.583 155.826 238.094L153.439 227.356C152.006 227.675 150.591 227.83 149.187 227.83V238.83ZM149.132 232.725V251.783H160.132V232.725H149.132ZM153.263 246.456C146.404 248.22 141.164 249.005 137.39 249.005V260.005C142.488 260.005 148.743 258.975 156.002 257.109L153.263 246.456ZM137.39 249.005C130.126 249.005 125.501 247.279 122.628 244.679L115.248 252.836C120.844 257.9 128.52 260.005 137.39 260.005V249.005ZM122.617 244.67C119.955 242.273 117.756 237.918 116.833 230.531L105.918 231.895C107.011 240.641 109.854 247.982 115.258 252.845L122.617 244.67ZM107.659 227.158C91.5063 241.965 74.8313 249.005 57.5301 249.005V260.005C78.1421 260.005 97.364 251.517 115.092 235.267L107.659 227.158ZM57.5301 249.005C42.5949 249.005 31.3132 245.056 23.0798 237.698L15.7503 245.902C26.4736 255.484 40.6019 260.005 57.5301 260.005V249.005ZM23.1236 237.738C15.1531 230.46 11.0001 220.629 11.0001 207.617H0C0 223.243 5.12344 236.2 15.7064 245.862L23.1236 237.738ZM11.0001 207.617C11.0001 203.292 11.3767 199.445 12.0921 196.046L1.32797 193.779C0.430072 198.045 0 202.666 0 207.617H11.0001ZM12.029 196.312C13.0092 192.587 13.9728 189.417 14.9147 186.779L4.55542 183.081C3.48059 186.089 2.42755 189.575 1.39109 193.513L12.029 196.312ZM14.8417 186.973C15.6782 184.882 17.1188 182.863 19.3645 180.938L12.2057 172.587C8.80459 175.502 6.21189 178.928 4.62837 182.887L14.8417 186.973ZM19.5275 180.793C22.3364 178.184 24.6233 176.097 26.3966 174.521L19.0885 166.299C17.2318 167.95 14.8803 170.097 12.0426 172.732L19.5275 180.793ZM26.1784 174.704C27.4039 173.724 29.8651 172.457 34.0902 171.114L30.755 160.631C26.1068 162.11 22.1145 163.869 19.3067 166.116L26.1784 174.704ZM34.2294 171.067C38.8305 169.467 42.171 168.424 44.3439 167.881L41.6762 157.209C39.0091 157.876 35.2914 159.051 30.6157 160.678L34.2294 171.067ZM44.7493 167.763C46.7176 167.107 50.5694 166.256 56.6193 165.248L54.8109 154.397C48.7607 155.406 44.1425 156.37 41.2708 157.327L44.7493 167.763ZM56.6193 165.248C62.6635 164.24 67.047 163.543 69.8029 163.15L68.2472 152.26C65.3566 152.674 60.8666 153.387 54.8109 154.397L56.6193 165.248ZM69.8029 163.15C72.6144 162.749 77.6462 162.043 84.9067 161.035L83.3934 150.14C76.1339 151.148 71.0825 151.856 68.2472 152.26L69.8029 163.15ZM84.8186 161.046C94.7923 159.825 102.817 157.807 107.826 154.379L101.614 145.301C98.9602 147.116 93.2711 148.93 83.4815 150.129L84.8186 161.046ZM107.826 154.379C113.368 150.587 115.968 144.828 115.968 138.042H104.968C104.968 141.744 103.735 143.849 101.614 145.301L107.826 154.379ZM115.968 138.042V131.387H104.968V138.042H115.968ZM115.968 131.387C115.968 121.924 111.95 114.303 104.072 109.221L98.1084 118.464C102.734 121.448 104.968 125.525 104.968 131.387H115.968ZM104.141 109.266C96.8153 104.382 86.8984 102.292 75.0751 102.292V113.292C85.8384 113.292 93.2645 115.236 98.0389 118.419L104.141 109.266ZM75.0751 102.292C62.779 102.292 52.5112 104.71 45.1087 110.385L51.8014 119.115C56.4989 115.513 63.9778 113.292 75.0751 113.292V102.292ZM45.2025 110.315C37.5546 115.923 33.5157 124.618 32.3971 135.355L43.338 136.495C44.2361 127.872 47.2555 122.45 51.7076 119.185L45.2025 110.315ZM37.8676 130.425H12.4576V141.425H37.8676V130.425ZM62.9751 237.923C77.8785 237.923 90.5871 234.015 100.641 225.79L93.6748 217.275C85.9816 223.57 75.9016 226.923 62.9751 226.923V237.923ZM100.697 225.741C110.331 217.641 115.968 208.268 115.968 197.635H104.968C104.968 203.942 101.731 210.501 93.6178 217.324L100.697 225.741ZM115.968 197.635V169.2H104.968V197.635H115.968ZM108.088 164.242C103.78 166.31 96.753 168.228 86.6252 169.816L88.3299 180.684C98.7721 179.045 107.072 176.93 112.848 174.158L108.088 164.242ZM86.6086 169.819C76.5227 171.433 67.7462 172.845 60.2796 174.057L62.0405 184.914C69.4972 183.705 78.2658 182.294 88.3466 180.681L86.6086 169.819ZM60.2796 174.057C51.9128 175.412 44.3112 178.707 37.5462 183.893L44.2389 192.622C49.5739 188.533 55.4841 185.978 62.0405 184.914L60.2796 174.057ZM37.64 183.822C30.0577 189.382 26.3176 197.348 26.3176 207.012H37.3176C37.3176 200.544 39.6281 196.006 44.1458 192.693L37.64 183.822ZM26.3176 207.012C26.3176 216.457 29.5846 224.387 36.5108 230.031L43.4593 221.504C39.4956 218.274 37.3176 213.702 37.3176 207.012H26.3176ZM36.5108 230.031C43.2688 235.538 52.3345 237.923 62.9751 237.923V226.923C53.8523 226.923 47.5913 224.871 43.4593 221.504L36.5108 230.031ZM179.104 89.0375V83.5375H173.604V89.0375H179.104ZM202.397 89.0375H207.897V83.5375H202.397V89.0375ZM202.397 115.657H196.897V134.545L207.036 118.61L202.397 115.657ZM225.084 91.76L222.306 87.0131L222.255 87.0438L225.084 91.76ZM305.247 247.548V253.048H310.747V247.548H305.247ZM280.139 247.548H274.639V253.048H280.139V247.548ZM216.312 121.405L220.58 124.873L220.614 124.83L216.312 121.405ZM204.514 247.548V253.048H210.014V247.548H204.514ZM179.104 247.548H173.604V253.048H179.104V247.548ZM179.104 94.5375H202.397V83.5375H179.104V94.5375ZM196.897 89.0375V115.657H207.897V89.0375H196.897ZM207.036 118.61C213.808 107.97 220.811 100.738 227.914 96.4762L222.255 87.0438C213.224 92.4621 205.102 101.162 197.756 112.705L207.036 118.61ZM227.862 96.5065C235.121 92.2583 244.097 90 255.032 90V79C242.573 79 231.584 81.5814 222.306 87.0131L227.862 96.5065ZM255.032 90C269.41 90 280.208 93.6732 288.032 100.454L295.236 92.1411C284.909 83.1918 271.306 79 255.032 79V90ZM288.032 100.454C295.783 107.171 299.747 116.08 299.747 127.757H310.747C310.747 113.219 305.636 101.154 295.236 92.1411L288.032 100.454ZM299.747 127.757V247.548H310.747V127.757H299.747ZM305.247 242.048H280.139V253.048H305.247V242.048ZM285.639 247.548V137.74H274.639V247.548H285.639ZM285.639 137.74C285.639 127.038 282.287 117.952 275.187 111.096L267.546 119.009C272.142 123.446 274.639 129.485 274.639 137.74H285.639ZM275.187 111.096C268.079 104.234 258.617 101.083 247.469 101.083V112.082C256.488 112.082 262.956 114.578 267.546 119.009L275.187 111.096ZM247.469 101.083C232.93 101.083 220.943 106.754 212.008 117.98L220.614 124.83C227.41 116.293 236.194 112.082 247.469 112.082V101.083ZM212.043 117.937C203.172 128.854 199.014 143.104 199.014 160.125H210.014C210.014 144.879 213.72 133.316 220.58 124.873L212.043 117.937ZM199.014 160.125V247.548H210.014V160.125H199.014ZM204.514 242.048H179.104V253.048H204.514V242.048ZM184.604 247.548V89.0375H173.604V247.548H184.604Z" fill="#1D1D1F"/>
<path d="M502 330C593.127 330 667 256.127 667 165C667 73.873 593.127 0 502 0C410.872 0 337 73.873 337 165C337 256.127 410.872 330 502 330Z" fill="#FF490C"/>
</svg>
