<svg width="22" height="22" viewBox="0 0 22 22" fill="none" xmlns="http://www.w3.org/2000/svg">
<path d="M15.6094 0H6.39066C2.86683 0 0 2.86683 0 6.39066V15.6093C0 19.1332 2.86683 22 6.39066 22H15.6093C19.1332 22 22 19.1332 22 15.6094V6.39066C22 2.86683 19.1332 0 15.6094 0ZM20.2812 15.6093C20.2812 18.1854 18.1854 20.2812 15.6094 20.2812H6.39066C3.81455 20.2812 1.71875 18.1854 1.71875 15.6094V6.39066C1.71875 3.81455 3.81455 1.71875 6.39066 1.71875H15.6093C18.1854 1.71875 20.2812 3.81455 20.2812 6.39066V15.6093Z" fill="#1D1D1F"/>
<path d="M11 5.07031C7.73034 5.07031 5.07031 7.73034 5.07031 11C5.07031 14.2697 7.73034 16.9297 11 16.9297C14.2697 16.9297 16.9297 14.2697 16.9297 11C16.9297 7.73034 14.2697 5.07031 11 5.07031ZM11 15.2109C8.6781 15.2109 6.78906 13.3219 6.78906 11C6.78906 8.6781 8.6781 6.78906 11 6.78906C13.3219 6.78906 15.2109 8.6781 15.2109 11C15.2109 13.3219 13.3219 15.2109 11 15.2109Z" fill="#1D1D1F"/>
<path d="M17.0156 5.84375C17.4902 5.84375 17.875 5.45899 17.875 4.98438C17.875 4.50976 17.4902 4.125 17.0156 4.125C16.541 4.125 16.1562 4.50976 16.1562 4.98438C16.1562 5.45899 16.541 5.84375 17.0156 5.84375Z" fill="#1D1D1F"/>
</svg>
