<svg width="38" height="38" viewBox="0 0 38 38" fill="none" xmlns="http://www.w3.org/2000/svg">
<g clip-path="url(#clip0_601_941)">
<path d="M16.05 27.45L29.55 13.95L27.8 12.25L16.05 24L10.15 18.05L8.45 19.8L16.05 27.45ZM19 38C16.4 38 13.9417 37.5 11.625 36.5C9.30833 35.5 7.29167 34.1417 5.575 32.425C3.85833 30.7083 2.5 28.6917 1.5 26.375C0.5 24.0583 0 21.6 0 19C0 16.3667 0.5 13.8917 1.5 11.575C2.5 9.25833 3.85833 7.25 5.575 5.55C7.29167 3.85 9.30833 2.5 11.625 1.5C13.9417 0.5 16.4 0 19 0C21.6333 0 24.1083 0.5 26.425 1.5C28.7417 2.5 30.75 3.85 32.45 5.55C34.15 7.25 35.5 9.25833 36.5 11.575C37.5 13.8917 38 16.3667 38 19C38 21.6 37.5 24.0583 36.5 26.375C35.5 28.6917 34.15 30.7083 32.45 32.425C30.75 34.1417 28.7417 35.5 26.425 36.5C24.1083 37.5 21.6333 38 19 38Z" fill="#222829"/>
</g>
<defs>
<clipPath id="clip0_601_941">
<rect width="38" height="38" fill="white"/>
</clipPath>
</defs>
</svg>
