<svg width="460" height="280" viewBox="0 0 460 280" fill="none" xmlns="http://www.w3.org/2000/svg">
<g clip-path="url(#clip0_616_1102)">
<path d="M101 142.513C112.422 142.959 119.778 142.311 128.072 134.233C130.085 132.273 133.589 129.349 134.344 126.48C134.773 124.851 136.34 123.684 133.769 124.248C131.652 124.712 128.494 125.254 126.663 126.471C126.001 126.911 133.624 124.331 135.91 123.449C138.833 122.321 135.506 135.979 135.039 138.299" stroke="#1C1C1C" stroke-width="2.2" stroke-linecap="round"/>
<path d="M330.478 139.696C332.505 131.954 333.752 120.417 327.937 113.638C326.57 112.045 320.279 108.199 318.15 110.347C315.45 113.072 317.235 117.724 319.816 120.012C323.514 123.289 330.469 125.189 335.258 125.206C339.086 125.219 342.459 124.496 346.17 123.922C348.007 123.638 350.229 122.574 352.072 122.67C354.416 122.792 347.503 119.519 345.965 119.305C345.663 119.263 350.869 121.133 352.682 120.823C353.585 120.669 351.514 123.758 351.333 124.062C350.041 126.227 349.209 128.656 348.423 131.036" stroke="#1C1C1C" stroke-width="2.2" stroke-linecap="round"/>
<g filter="url(#filter0_d_616_1102)">
<circle cx="186" cy="85" r="45" fill="white"/>
</g>
<g filter="url(#filter1_d_616_1102)">
<circle cx="45" cy="175" r="45" fill="white"/>
</g>
<g filter="url(#filter2_d_616_1102)">
<circle cx="291" cy="195" r="45" fill="white"/>
</g>
<g filter="url(#filter3_d_616_1102)">
<circle cx="415" cy="97" r="45" fill="white"/>
</g>
<path d="M118 196.633C126.042 197.146 134.741 196.972 139.952 190.009C141.778 187.568 144.966 183.487 143.138 180.247C141.263 176.924 138.719 180.997 137.473 183.695C136.128 186.609 136.001 189.472 137.513 192.449C141.407 200.12 153.799 193.873 159.071 191.055C162.232 189.365 167.077 185.137 166.86 181.293C166.608 176.83 162.203 181.501 161.353 182.687C156.03 190.112 162.314 197.422 169.693 199.073C177.648 200.854 185.47 199.422 193.454 199.422C197.705 199.422 201.866 198.725 206.121 198.725C207.315 198.725 210.731 198.425 209.623 197.989C206.818 196.884 204.769 194.751 202.266 193.301C201.36 192.777 207.902 195.871 209.505 196.478C212.547 197.63 214.931 197.323 210.763 199.267C207.958 200.575 204.384 202.224 202.974 205" stroke="#1C1C1C" stroke-width="2.2" stroke-linecap="round"/>
<g clip-path="url(#clip1_616_1102)">
<path fill-rule="evenodd" clip-rule="evenodd" d="M233.165 24.5191C233.923 24.2488 234.721 23.8896 235.337 23.3696C236.068 22.7519 236.365 21.9564 236.565 21.1191C236.821 20.0433 236.923 18.8973 237.234 17.8198C237.349 17.4196 237.571 17.2684 237.666 17.2012C237.906 17.0317 238.149 16.9863 238.377 17.0033C238.648 17.023 239.02 17.1254 239.264 17.5791C239.299 17.6441 239.344 17.7431 239.375 17.8786C239.397 17.978 239.412 18.2888 239.435 18.4169C239.494 18.7325 239.543 19.0481 239.589 19.3655C239.743 20.4216 239.832 21.3187 240.318 22.289C240.977 23.6063 241.638 24.4123 242.534 24.7693C243.401 25.1145 244.437 25.0496 245.761 24.7789C245.887 24.7484 246.012 24.7222 246.135 24.7008C246.719 24.5988 247.276 24.982 247.391 25.5635C247.506 26.1445 247.135 26.7108 246.556 26.8385C246.436 26.8651 246.317 26.8904 246.199 26.9135C244.41 27.3563 242.339 28.9369 241.136 30.3209C240.765 30.7476 240.222 31.9407 239.667 32.7017C239.259 33.2632 238.799 33.6333 238.413 33.764C238.155 33.8521 237.937 33.8386 237.757 33.7941C237.495 33.7296 237.278 33.5879 237.112 33.3626C237.021 33.2392 236.937 33.074 236.897 32.863C236.878 32.7615 236.876 32.5034 236.876 32.3866C236.763 31.9982 236.625 31.619 236.524 31.2271C236.284 30.2921 235.813 29.7001 235.253 28.9181C234.73 28.1863 234.167 27.7264 233.343 27.3594C233.236 27.3332 232.371 27.1214 232.065 26.9998C231.619 26.8215 231.406 26.5229 231.329 26.362C231.198 26.0892 231.184 25.8507 231.21 25.652C231.249 25.3586 231.381 25.1075 231.614 24.9049C231.759 24.7789 231.975 24.6564 232.265 24.5967C232.488 24.55 233.081 24.523 233.165 24.5191ZM238.241 22.9952C238.281 23.0845 238.324 23.1743 238.369 23.265C239.335 25.1943 240.415 26.2714 241.728 26.794L241.772 26.811C240.894 27.4631 240.099 28.1919 239.491 28.8907C239.241 29.1784 238.909 29.776 238.552 30.3889C238.226 29.3318 237.695 28.5847 237.026 27.6497C236.515 26.9361 235.98 26.3991 235.322 25.9615C235.832 25.6995 236.319 25.3926 236.743 25.0343C237.45 24.4376 237.916 23.7462 238.241 22.9952Z" fill="black"/>
</g>
<path fill-rule="evenodd" clip-rule="evenodd" d="M259.903 42.9266C259.836 42.5292 259.785 42.1364 259.753 41.7436C259.704 41.1543 259.734 40.5605 259.717 39.9712C259.709 39.7212 259.679 39.0694 259.691 38.9757C259.8 38.1587 260.46 38.0337 260.653 38.0114C260.746 37.998 261.704 37.8909 261.911 38.9534C262.164 40.2525 262.246 41.5605 262.156 42.8418C262.365 43.931 262.723 45.0158 263.196 45.998C265.077 49.9042 268.662 50.2837 272.546 50.248C273.143 50.2391 273.639 50.7078 273.671 51.3016C273.702 51.8998 273.257 52.4176 272.663 52.4712C270.492 52.681 266.64 54.4221 265.308 56.2346C265.029 56.6141 264.867 57.5293 264.653 58.4266C264.354 59.6721 263.998 60.9043 263.6 61.4221C263.54 61.5025 262.812 62.3239 262.596 62.4445C262.074 62.7302 261.657 62.565 261.42 62.4132C261.183 62.2614 260.914 61.9623 260.807 61.4667C260.695 60.9489 260.79 59.8864 260.772 59.6587C260.709 58.8328 260.544 57.2123 260.207 55.8194C260.025 55.0694 259.831 54.3774 259.511 54.0337C258.324 52.7614 256.427 52.9489 254.829 53.1587C254.646 53.181 254.462 53.2078 254.279 53.2302C253.629 53.4221 252.938 53.565 252.208 53.6498C251.106 53.7792 250.925 52.7658 250.915 52.6989C250.894 52.5516 250.818 51.7926 251.649 51.4891C251.739 51.4578 252.408 51.3105 252.666 51.2525C253.025 51.1721 253.387 51.1096 253.752 51.0516C257.515 49.8819 259.558 46.5962 259.903 42.9266ZM261.194 46.9846C262.615 49.9221 264.771 51.3418 267.326 51.9846H267.325C265.73 52.8194 264.279 53.8641 263.509 54.9132C263.217 55.3105 262.95 56.1096 262.708 57.0069C262.577 56.1721 262.4 55.2837 262.167 54.5248C261.901 53.6587 261.544 52.94 261.145 52.5114C260.374 51.6855 259.407 51.2257 258.367 50.998C259.612 49.8953 260.556 48.5203 261.194 46.9846Z" fill="black"/>
<path fill-rule="evenodd" clip-rule="evenodd" d="M292.081 172.13C306.698 172.13 318.547 183.979 318.547 198.595C318.547 201.149 319.785 203.805 319.148 206.312C317.619 212.326 307.519 227.266 300.462 229.471C290.043 232.727 274.601 220.32 268.725 209.576C268.428 209.607 268.127 209.622 267.822 209.622C262.95 209.622 259 205.673 259 200.8C259 196.405 262.215 192.76 266.423 192.089C269.321 180.618 279.71 172.13 292.081 172.13ZM266.042 199.207L266.955 202.615Z" fill="white"/>
<path d="M266.042 199.207L266.955 202.615M292.081 172.13C306.698 172.13 318.547 183.979 318.547 198.595C318.547 201.149 319.785 203.805 319.148 206.312C317.619 212.326 307.519 227.266 300.462 229.471C290.043 232.727 274.601 220.32 268.725 209.576C268.428 209.607 268.127 209.622 267.822 209.622C262.95 209.622 259 205.673 259 200.8C259 196.405 262.215 192.76 266.423 192.089C269.321 180.618 279.71 172.13 292.081 172.13Z" stroke="black" stroke-width="2.64652" stroke-linecap="round" stroke-linejoin="round"/>
<path d="M303.733 196.142C305.043 198.284 305.838 199.882 306.121 200.935C306.403 201.989 306.463 203.587 306.302 205.729" stroke="black" stroke-width="1.76434" stroke-linecap="round" stroke-linejoin="round"/>
<path fill-rule="evenodd" clip-rule="evenodd" d="M294.714 218.725C292.539 217.364 290.913 215.027 290.913 215.027C290.913 215.027 296.162 213.882 300.573 213.847C304.984 213.812 310.233 215.027 310.233 215.027C310.233 215.027 308.606 217.364 306.431 218.725C305.436 219.349 302.337 219.657 300.622 219.657C298.906 219.657 295.699 219.342 294.714 218.725Z" stroke="black" stroke-width="1.76434" stroke-linecap="round" stroke-linejoin="round"/>
<path d="M296.197 218.664C296.197 218.664 298.385 217.782 300.573 217.782C302.76 217.782 304.948 218.664 304.948 218.664" stroke="black" stroke-width="0.882172" stroke-linecap="round" stroke-linejoin="round"/>
<path fill-rule="evenodd" clip-rule="evenodd" d="M296.272 187.237C297.734 187.237 298.919 188.422 298.919 189.884C298.919 191.345 297.734 192.53 296.272 192.53C294.81 192.53 293.625 191.345 293.625 189.884C293.625 188.422 294.81 187.237 296.272 187.237ZM311.489 187.237C312.951 187.237 314.136 188.422 314.136 189.884C314.136 191.345 312.951 192.53 311.489 192.53C310.028 192.53 308.843 191.345 308.843 189.884C308.843 188.422 310.028 187.237 311.489 187.237Z" fill="black"/>
<path d="M293.625 187.237C294.508 186.723 295.39 186.465 296.272 186.465C297.154 186.465 298.036 186.723 298.919 187.237" stroke="black" stroke-width="0.441086" stroke-linecap="round" stroke-linejoin="round"/>
<path d="M308.843 187.237C309.725 186.723 310.607 186.465 311.489 186.465C312.371 186.465 313.254 186.723 314.136 187.237" stroke="black" stroke-width="0.441086" stroke-linecap="round" stroke-linejoin="round"/>
<path fill-rule="evenodd" clip-rule="evenodd" d="M306.46 183.525C306.791 182.973 313.076 180.989 315.282 181.319C317.487 181.65 320.685 184.517 320.685 184.517C320.685 184.517 317.708 183.304 314.951 183.304C312.194 183.304 308.335 185.289 308.335 185.289C308.335 185.289 306.129 184.076 306.46 183.525Z" fill="black" stroke="black" stroke-width="0.441086" stroke-linecap="round" stroke-linejoin="round"/>
<path fill-rule="evenodd" clip-rule="evenodd" d="M301.234 183.525C300.903 182.973 294.618 180.989 292.413 181.319C290.207 181.65 287.009 184.517 287.009 184.517C287.009 184.517 289.987 183.304 292.743 183.304C295.5 183.304 299.36 185.289 299.36 185.289C299.36 185.289 301.565 184.076 301.234 183.525Z" fill="black" stroke="black" stroke-width="0.441086" stroke-linecap="round" stroke-linejoin="round"/>
<path d="M299.025 183.546H308.885" stroke="black" stroke-width="0.882172" stroke-linecap="round" stroke-linejoin="round"/>
<path d="M298.808 187.432C298.808 187.432 301.311 185.583 303.77 185.583C306.23 185.583 308.668 187.432 308.668 187.432" stroke="black" stroke-width="0.882172" stroke-linecap="round" stroke-linejoin="round"/>
<path d="M289.709 187.41L265.818 191.623" stroke="black" stroke-width="1.76434" stroke-linecap="round" stroke-linejoin="round"/>
<path fill-rule="evenodd" clip-rule="evenodd" d="M285.272 185.32C288.882 180.194 299.37 181.311 301.715 185.945C304.061 190.578 295.572 197.051 290.419 197.051C285.266 197.051 281.661 190.446 285.272 185.32Z" fill="#0C0C0C"/>
<mask id="mask0_616_1102" style="mask-type:alpha" maskUnits="userSpaceOnUse" x="283" y="181" width="20" height="17">
<path fill-rule="evenodd" clip-rule="evenodd" d="M285.272 185.32C288.882 180.194 299.37 181.311 301.715 185.945C304.061 190.578 295.572 197.051 290.419 197.051C285.266 197.051 281.661 190.446 285.272 185.32Z" fill="white"/>
</mask>
<g mask="url(#mask0_616_1102)">
<path d="M305.603 198.808L294.025 178.754L291.351 180.297L302.929 200.352L305.603 198.808Z" fill="white"/>
</g>
<path fill-rule="evenodd" clip-rule="evenodd" d="M322.159 185.32C318.549 180.194 308.061 181.311 305.716 185.945C303.37 190.578 311.859 197.051 317.012 197.051C322.165 197.051 325.77 190.446 322.159 185.32Z" fill="#0C0C0C"/>
<mask id="mask1_616_1102" style="mask-type:alpha" maskUnits="userSpaceOnUse" x="305" y="181" width="19" height="17">
<path fill-rule="evenodd" clip-rule="evenodd" d="M322.159 185.32C318.549 180.194 308.061 181.311 305.716 185.945C303.37 190.578 311.859 197.051 317.012 197.051C322.165 197.051 325.77 190.446 322.159 185.32Z" fill="white"/>
</mask>
<g mask="url(#mask1_616_1102)">
<path d="M326.555 198.808L314.977 178.754L312.303 180.297L323.881 200.352L326.555 198.808Z" fill="white"/>
</g>
<path fill-rule="evenodd" clip-rule="evenodd" d="M285.272 185.32C288.882 180.194 299.37 181.311 301.715 185.945C304.061 190.578 295.572 197.051 290.419 197.051C285.266 197.051 281.661 190.446 285.272 185.32Z" stroke="black" stroke-width="0.882172" stroke-linecap="round" stroke-linejoin="round"/>
<path fill-rule="evenodd" clip-rule="evenodd" d="M322.159 185.32C318.549 180.194 308.061 181.311 305.716 185.945C303.37 190.578 311.859 197.051 317.012 197.051C322.165 197.051 325.77 190.446 322.159 185.32Z" stroke="black" stroke-width="0.882172" stroke-linecap="round" stroke-linejoin="round"/>
<path fill-rule="evenodd" clip-rule="evenodd" d="M303.881 160.916C307.016 161.924 310.166 163.198 311.048 167.388C311.803 170.972 311.82 172.02 309.394 179.518C308.659 177.827 305.02 176.872 298.478 176.651C295.297 176.544 291.646 174.883 288.002 175.107C285.296 175.274 281.043 176.727 275.243 179.465L275.328 179.817C276.232 183.563 276.684 186.064 276.684 187.319C276.684 188.535 275.827 193.103 274.112 201.022L273.777 202.565L269.599 192.621H265.081C263.387 186.327 262.982 182.016 263.866 179.688C264.75 177.36 266.069 175.686 267.822 174.666C269.917 170.807 285.284 166.542 287.904 166.091C288.087 166.06 288.265 166.033 288.438 166.01L288.604 165.913C289.496 165.385 290.091 164.961 290.75 164.542C287.703 164.869 283.258 166.3 277.416 168.834C282.683 165.388 287.477 163.62 291.801 163.531C292.062 163.525 292.317 163.526 292.567 163.532C292.79 163.424 293.031 163.314 293.295 163.198C293.945 162.912 294.737 162.688 295.622 162.53C292.581 162.298 287.731 163.165 281.073 165.13C286.72 162.351 291.695 161.181 295.997 161.62C297.132 161.735 298.148 161.944 299.046 162.246C301.628 162.245 304.433 162.675 306.708 163.594C305.885 162.85 304.943 162.288 303.881 161.909C301.042 160.894 295.933 160.673 288.553 161.247C294.655 159.703 299.764 159.593 303.881 160.916Z" fill="black" stroke="black" stroke-width="1.32326" stroke-linecap="round" stroke-linejoin="round"/>
<path fill-rule="evenodd" clip-rule="evenodd" d="M48.206 157.615C61.9248 157.615 73.0462 168.736 73.0462 182.455C73.0462 196.174 66.0649 207.295 48.206 207.295C35.1486 207.295 27.906 201.35 24.9554 192.791C20.6061 192.543 17.1558 188.937 17.1558 184.525C17.1558 180.399 20.1737 176.978 24.1226 176.349C26.8434 165.582 36.5942 157.615 48.206 157.615ZM23.7652 183.029L24.6224 186.228Z" fill="white"/>
<path d="M23.7652 183.029L24.6224 186.228M48.206 157.615C61.9248 157.615 73.0462 168.736 73.0462 182.455C73.0462 196.174 66.0649 207.295 48.206 207.295C35.1486 207.295 27.906 201.35 24.9554 192.791C20.6061 192.543 17.1558 188.937 17.1558 184.525C17.1558 180.399 20.1737 176.978 24.1226 176.349C26.8434 165.582 36.5942 157.615 48.206 157.615Z" stroke="#222829" stroke-width="2.48402" stroke-linecap="round" stroke-linejoin="round"/>
<path d="M60.3154 180.489C62.3854 181.179 63.4205 182.559 63.4205 184.629C63.4205 186.699 62.3854 188.079 60.3154 188.769" stroke="#222829" stroke-width="1.65601" stroke-linecap="round" stroke-linejoin="round"/>
<path fill-rule="evenodd" clip-rule="evenodd" d="M51.0844 196.387C51.7966 194.786 53.1141 194.786 55.037 196.387L55.0945 196.339C56.9862 194.786 58.2846 194.802 58.9896 196.387C59.6947 197.972 58.4104 199.523 55.1368 201.039L55.037 201.085C51.6897 199.554 50.3722 197.988 51.0844 196.387Z" fill="#222829" stroke="#222829" stroke-width="1.65601" stroke-linecap="round" stroke-linejoin="round"/>
<path d="M61.4541 173.917C61.4541 173.917 62.3309 173.554 63.4998 173.554C64.6687 173.554 65.8851 174.072 67.9808 174.072C70.0763 174.072 71.3902 173.554 71.3902 173.554" stroke="#222829" stroke-width="1.24201" stroke-linecap="round" stroke-linejoin="round"/>
<path d="M57.107 173.917C57.107 173.917 56.2302 173.554 55.0613 173.554C53.8923 173.554 52.676 174.072 50.5803 174.072C48.4847 174.072 47.1709 173.554 47.1709 173.554" stroke="#222829" stroke-width="1.24201" stroke-linecap="round" stroke-linejoin="round"/>
<path fill-rule="evenodd" clip-rule="evenodd" d="M63.7866 169.208C63.7866 169.208 68.5583 169.023 69.9213 169.637C71.2843 170.251 71.1009 171.328 71.1009 171.328C71.1009 171.328 70.398 170.552 69.4584 170.072C68.5186 169.591 63.7866 169.208 63.7866 169.208Z" fill="#222829" stroke="#222829" stroke-width="0.828006" stroke-linecap="round" stroke-linejoin="round"/>
<path fill-rule="evenodd" clip-rule="evenodd" d="M54.7742 169.208C54.7742 169.208 50.0025 169.023 48.6395 169.637C47.2765 170.251 47.4599 171.328 47.4599 171.328C47.4599 171.328 48.1628 170.552 49.1025 170.072C50.0423 169.591 54.7742 169.208 54.7742 169.208Z" fill="#222829" stroke="#222829" stroke-width="0.828006" stroke-linecap="round" stroke-linejoin="round"/>
<path fill-rule="evenodd" clip-rule="evenodd" d="M75.5509 170.017C76.1962 170.833 76.3806 175.479 73.4306 178.169C71.6393 179.802 67.4968 180.229 64.7649 179.229C63.0154 178.588 62.161 176.734 61.9144 176.307L61.9071 176.294C61.1251 174.964 60.2841 174.051 59.3843 173.554C58.4988 174.043 57.6703 174.935 56.8989 176.231L56.8616 176.294C56.6248 176.697 55.7709 178.582 54.0038 179.229C51.2719 180.229 47.1294 179.802 45.3381 178.169C42.3881 175.479 42.5725 170.833 43.2178 170.017C43.8631 169.202 48.2881 168.632 51.8834 169.284C55.4788 169.936 57.0547 171.617 57.7835 171.892C58.2385 172.064 58.7526 172.146 59.3257 172.139L59.3258 172.137L59.3843 172.138L59.4428 172.137L59.4429 172.139C60.0161 172.146 60.5302 172.064 60.9852 171.892C61.714 171.617 63.2899 169.936 66.8852 169.284C70.4806 168.632 74.9056 169.202 75.5509 170.017ZM44.6928 170.588C42.6647 171.974 44.5084 176.783 46.4444 178.169C48.3803 179.555 52.9897 179.229 54.096 178.495C55.2022 177.761 57.6913 174.582 56.8616 172.544C56.0319 170.506 47.6428 169.121 44.6928 170.588ZM74.0759 170.588C71.1259 169.121 62.7368 170.506 61.9071 172.544C61.0774 174.582 63.5665 177.761 64.6727 178.495C65.779 179.229 70.3884 179.555 72.3243 178.169C74.2603 176.783 76.104 171.974 74.0759 170.588Z" fill="#222829" stroke="#222829" stroke-width="0.414003" stroke-linecap="round" stroke-linejoin="round"/>
<path fill-rule="evenodd" clip-rule="evenodd" d="M43.6523 171.07L23.4697 174.382L23.0557 175.314L43.6523 173.244V171.07Z" fill="#222829" stroke="#222829" stroke-width="0.414003" stroke-linecap="round" stroke-linejoin="round"/>
<path fill-rule="evenodd" clip-rule="evenodd" d="M22.0209 192.805L25.4365 193.633L30.715 201.603L30.6126 201.617C29.8242 201.724 29.3408 201.719 29.1625 201.603C27.8283 200.732 27.0579 199.247 25.8505 197.98C24.3906 196.449 23.1141 194.724 22.0209 192.805ZM50.5871 143.746C54.7772 144.208 58.4445 146.202 61.5399 148.862L61.7972 148.911C66.0034 149.728 70.595 150.629 72.6328 153.579C75.2548 157.374 76.3244 161.824 75.8413 166.93C74.088 162.793 71.3908 159.478 69.7381 159.123C71.8988 162.91 72.6328 166.121 72.6328 167.344C72.6328 171.381 70.9078 175.59 70.1488 178.212C70.1488 174.624 69.3552 168.621 64.6632 164.136C59.0761 158.795 49.2227 161.652 45.1016 161.652C41.9215 161.652 43.6491 166.504 40.8187 170.078C41.2385 171.484 42.1001 173.554 44.2736 175.521C40.916 175.519 39.5878 173.507 38.5619 171.366L38.2174 171.423C37.9486 171.468 37.6807 171.516 37.4332 171.575C37.7635 172.928 38.4999 174.542 39.6425 176.419C38.1396 175.144 37.0562 173.693 36.392 172.069C36.356 172.112 36.3264 172.159 36.304 172.209C33.8577 177.667 33.82 179.764 32.578 186.181H31.0255L30.8835 185.855C29.3621 182.378 28.133 180.038 27.196 178.833L27.1089 178.722C25.6858 176.927 24.1901 175.883 22.9524 176.245L22.8743 176.269L22.8189 176.287C21.9095 176.587 19.8723 177.563 18.3984 179.35C17.8549 180.009 17.2685 181.251 16.6389 183.076L16.5421 182.931L16.4008 182.716C15.087 180.703 14.3728 179.202 14.2584 178.212C13.8566 174.738 13.4304 163.308 17.1564 158.029C20.8824 152.751 22.1148 153.427 25.0225 152.751C27.5065 144.401 36.3248 142.173 50.5871 143.746Z" fill="#222829"/>
<path d="M22.0204 192.806L22.1666 192.203C21.9259 192.144 21.6733 192.235 21.5243 192.433C21.3752 192.63 21.3581 192.898 21.4807 193.113L22.0204 192.806ZM25.4359 193.634L25.9536 193.291C25.8671 193.161 25.7344 193.067 25.5821 193.031L25.4359 193.634ZM30.7144 201.604L30.8001 202.219C31.0114 202.189 31.1928 202.053 31.2805 201.859C31.3682 201.664 31.3499 201.439 31.2321 201.261L30.7144 201.604ZM30.6121 201.618L30.6955 202.233C30.6963 202.233 30.697 202.233 30.6978 202.233L30.6121 201.618ZM29.1619 201.604L29.5013 201.084L29.1619 201.604ZM25.8499 197.981L25.4004 198.41L25.8499 197.981ZM50.5866 143.747L50.5185 144.364L50.5866 143.747ZM61.5393 148.862L61.1347 149.333C61.2169 149.404 61.3163 149.452 61.4229 149.472L61.5393 148.862ZM61.7966 148.911L61.9149 148.302C61.9143 148.302 61.9137 148.302 61.9131 148.302L61.7966 148.911ZM72.6322 153.579L72.1213 153.932L72.6322 153.579ZM75.8408 166.931L75.269 167.173C75.38 167.435 75.6546 167.588 75.9356 167.545C76.2166 167.501 76.4322 167.272 76.459 166.989L75.8408 166.931ZM69.7375 159.124L69.868 158.516C69.6285 158.465 69.3812 158.559 69.2365 158.757C69.0918 158.954 69.0768 159.219 69.1981 159.431L69.7375 159.124ZM70.1482 178.212H69.5272C69.5272 178.522 69.7548 178.784 70.061 178.827C70.3672 178.871 70.6587 178.682 70.7447 178.385L70.1482 178.212ZM64.6627 164.136L64.2336 164.585L64.6627 164.136ZM40.8182 170.078L40.3314 169.693C40.2056 169.852 40.1652 170.062 40.2232 170.256L40.8182 170.078ZM44.273 175.521L44.2727 176.142C44.5296 176.143 44.76 175.984 44.8524 175.745C44.9449 175.505 44.8802 175.233 44.6896 175.061L44.273 175.521ZM38.5613 171.366L39.1214 171.098C39.0019 170.849 38.732 170.709 38.4593 170.754L38.5613 171.366ZM38.2168 171.424L38.1147 170.811L38.1137 170.811L38.2168 171.424ZM37.4327 171.576L37.2888 170.972C37.128 171.01 36.9891 171.111 36.9028 171.252C36.8166 171.393 36.7901 171.563 36.8294 171.723L37.4327 171.576ZM39.6419 176.42L39.24 176.893C39.4723 177.091 39.8134 177.09 40.0451 176.892C40.2769 176.694 40.3308 176.358 40.1723 176.097L39.6419 176.42ZM36.3915 172.069L36.9663 171.834C36.8837 171.633 36.7013 171.489 36.4858 171.456C36.2703 171.422 36.0531 171.505 35.9137 171.673L36.3915 172.069ZM36.3035 172.209L35.7368 171.955L36.3035 172.209ZM32.5774 186.182V186.803C32.8749 186.803 33.1306 186.592 33.1872 186.3L32.5774 186.182ZM31.0249 186.182L30.4556 186.43C30.5543 186.657 30.7779 186.803 31.0249 186.803V186.182ZM30.8829 185.856L31.4522 185.608L31.4519 185.607L30.8829 185.856ZM27.1954 178.833L27.6856 178.452C27.685 178.451 27.6844 178.451 27.6838 178.45L27.1954 178.833ZM27.1084 178.723L27.5968 178.339C27.5962 178.338 27.5956 178.338 27.595 178.337L27.1084 178.723ZM22.9519 176.246L22.7775 175.65C22.7752 175.651 22.773 175.651 22.7707 175.652L22.9519 176.246ZM22.8737 176.27L22.6927 175.676C22.6894 175.677 22.686 175.678 22.6827 175.679L22.8737 176.27ZM22.8184 176.288L22.6273 175.697C22.6261 175.697 22.6248 175.698 22.6236 175.698L22.8184 176.288ZM18.3978 179.351L17.9186 178.956L18.3978 179.351ZM16.6383 183.077L16.1211 183.421C16.252 183.617 16.4829 183.723 16.7171 183.693C16.9514 183.663 17.1484 183.503 17.2254 183.28L16.6383 183.077ZM16.5416 182.931L16.0227 183.273C16.0232 183.274 16.0238 183.274 16.0245 183.275L16.5416 182.931ZM16.4003 182.716L15.8802 183.056C15.8806 183.056 15.8809 183.057 15.8813 183.058L16.4003 182.716ZM14.2578 178.212L14.8747 178.141L14.2578 178.212ZM25.0219 152.751L25.1625 153.356C25.3799 153.306 25.5535 153.142 25.6171 152.928L25.0219 152.751ZM21.874 193.41L25.2895 194.238L25.5821 193.031L22.1666 192.203L21.874 193.41ZM24.9182 193.977L30.1967 201.947L31.2321 201.261L25.9536 193.291L24.9182 193.977ZM30.6287 200.989L30.5265 201.003L30.6978 202.233L30.8001 202.219L30.6287 200.989ZM30.5286 201.002C30.1478 201.054 29.8631 201.075 29.6643 201.073C29.565 201.073 29.5011 201.066 29.4647 201.059C29.4214 201.051 29.4485 201.049 29.5013 201.084L28.8224 202.124C28.9645 202.216 29.1189 202.258 29.241 202.281C29.3701 202.304 29.5097 202.314 29.6521 202.315C29.9366 202.318 30.2879 202.288 30.6955 202.233L30.5286 201.002ZM29.5013 201.084C28.9206 200.705 28.4449 200.18 27.9435 199.553C27.4589 198.947 26.928 198.212 26.2993 197.552L25.4004 198.41C25.9793 199.017 26.4373 199.658 26.9733 200.328C27.4925 200.978 28.0691 201.632 28.8224 202.124L29.5013 201.084ZM26.2993 197.552C24.8758 196.06 23.6292 194.376 22.5599 192.499L21.4807 193.113C22.5978 195.074 23.9042 196.84 25.4004 198.41L26.2993 197.552ZM50.5185 144.364C54.5498 144.809 58.104 146.729 61.1347 149.333L61.9441 148.391C58.7838 145.676 55.0034 143.609 50.6547 143.129L50.5185 144.364ZM61.4229 149.472L61.6802 149.522L61.9131 148.302L61.6558 148.252L61.4229 149.472ZM61.6782 149.521C63.7912 149.931 65.9417 150.353 67.8167 151.03C69.694 151.707 71.2093 152.612 72.1213 153.932L73.1431 153.226C72.0172 151.597 70.218 150.576 68.2384 149.862C66.2566 149.146 64.0081 148.708 61.9149 148.302L61.6782 149.521ZM72.1213 153.932C74.6508 157.593 75.6934 161.894 75.2226 166.872L76.459 166.989C76.9541 161.755 75.8576 157.155 73.1431 153.226L72.1213 153.932ZM76.4125 166.688C75.5162 164.574 74.376 162.662 73.2384 161.224C72.6698 160.505 72.0933 159.894 71.5383 159.434C70.9939 158.982 70.4236 158.636 69.868 158.516L69.607 159.731C69.8777 159.789 70.2644 159.991 70.7453 160.39C71.2157 160.78 71.7329 161.323 72.2644 161.995C73.3269 163.337 74.4121 165.151 75.269 167.173L76.4125 166.688ZM69.1981 159.431C71.3276 163.164 72.0112 166.267 72.0112 167.345H73.2532C73.2532 165.977 72.4688 162.658 70.2769 158.816L69.1981 159.431ZM72.0112 167.345C72.0112 169.281 71.5966 171.28 71.0767 173.142C70.8174 174.071 70.534 174.959 70.2659 175.784C69.9997 176.604 69.7451 177.372 69.5516 178.04L70.7447 178.385C70.9309 177.742 71.1765 177.001 71.4472 176.168C71.7161 175.34 72.0063 174.432 72.273 173.476C72.8054 171.569 73.2532 169.445 73.2532 167.345H72.0112ZM70.7692 178.212C70.7692 174.556 69.9642 168.345 65.0918 163.687L64.2336 164.585C68.7452 168.898 69.5272 174.693 69.5272 178.212H70.7692ZM65.0918 163.687C62.1197 160.846 58.0532 160.223 54.3242 160.271C52.4513 160.294 50.6314 160.488 49.0389 160.672C47.4245 160.86 46.0852 161.031 45.101 161.031V162.273C46.1774 162.273 47.6152 162.088 49.182 161.906C50.7706 161.722 52.5359 161.535 54.3399 161.512C57.9646 161.467 61.6185 162.085 64.2336 164.585L65.0918 163.687ZM45.101 161.031C44.6235 161.031 44.1983 161.123 43.8285 161.319C43.4569 161.517 43.1783 161.801 42.9664 162.13C42.5621 162.756 42.3755 163.593 42.2186 164.408C41.8891 166.12 41.6319 168.051 40.3314 169.693L41.305 170.464C42.8348 168.532 43.1289 166.25 43.4382 164.642C43.6008 163.798 43.7554 163.198 44.01 162.803C44.1276 162.621 44.2579 162.498 44.4116 162.416C44.5671 162.333 44.7835 162.273 45.101 162.273V161.031ZM40.2232 170.256C40.6646 171.735 41.5743 173.917 43.8563 175.982L44.6896 175.061C42.6247 173.193 41.8115 171.235 41.4133 169.901L40.2232 170.256ZM44.2733 174.9C42.7344 174.9 41.7111 174.444 40.952 173.779C40.1715 173.095 39.6273 172.154 39.1214 171.098L38.0013 171.635C38.5214 172.72 39.1542 173.855 40.1336 174.713C41.1346 175.59 42.4541 176.142 44.2727 176.142L44.2733 174.9ZM38.4593 170.754L38.1147 170.811L38.3188 172.036L38.6634 171.979L38.4593 170.754ZM38.1137 170.811C37.8434 170.857 37.558 170.908 37.2888 170.972L37.5765 172.18C37.8024 172.126 38.0526 172.081 38.3199 172.036L38.1137 170.811ZM36.8294 171.723C37.181 173.163 37.9526 174.839 39.1113 176.743L40.1723 176.097C39.0461 174.247 38.3449 172.694 38.036 171.428L36.8294 171.723ZM40.0438 175.947C38.6074 174.727 37.5882 173.356 36.9663 171.834L35.8166 172.304C36.5229 174.032 37.6707 175.561 39.24 176.893L40.0438 175.947ZM35.9137 171.673C35.8443 171.756 35.7839 171.85 35.7368 171.955L36.8701 172.463C36.8691 172.466 36.8682 172.467 36.8678 172.468C36.8673 172.469 36.8677 172.468 36.8691 172.466L35.9137 171.673ZM35.7368 171.955C33.2536 177.496 33.2028 179.683 31.9677 186.064L33.1872 186.3C34.4361 179.847 34.4607 177.84 36.8701 172.463L35.7368 171.955ZM32.5774 185.561H31.0249V186.803H32.5774V185.561ZM31.5942 185.934L31.4522 185.608L30.3136 186.104L30.4556 186.43L31.5942 185.934ZM31.4519 185.607C29.9315 182.132 28.6757 179.725 27.6856 178.452L26.7052 179.215C27.5891 180.351 28.7917 182.626 30.314 186.105L31.4519 185.607ZM27.6838 178.45L27.5968 178.339L26.6199 179.106L26.707 179.217L27.6838 178.45ZM27.595 178.337C26.8594 177.409 26.0785 176.64 25.2888 176.148C24.502 175.658 23.6315 175.4 22.7775 175.65L23.1263 176.842C23.51 176.73 24.0061 176.812 24.6323 177.202C25.2557 177.591 25.9341 178.241 26.6217 179.108L27.595 178.337ZM22.7707 175.652L22.6927 175.676L23.0549 176.864L23.1329 176.84L22.7707 175.652ZM22.6827 175.679L22.6273 175.697L23.0095 176.879L23.0649 176.861L22.6827 175.679ZM22.6236 175.698C21.6392 176.023 19.4881 177.052 17.9186 178.956L18.8769 179.746C20.2553 178.074 22.1787 177.153 23.0133 176.877L22.6236 175.698ZM17.9186 178.956C17.298 179.709 16.6822 181.046 16.0513 182.874L17.2254 183.28C17.8535 181.459 18.4108 180.311 18.8769 179.746L17.9186 178.956ZM17.1554 182.733L17.0587 182.588L16.0245 183.275L16.1211 183.421L17.1554 182.733ZM17.0605 182.59L16.9191 182.375L15.8813 183.058L16.0227 183.273L17.0605 182.59ZM16.9203 182.377C16.2726 181.385 15.7812 180.531 15.4401 179.814C15.0954 179.09 14.9206 178.538 14.8747 178.141L13.6409 178.284C13.7095 178.877 13.949 179.571 14.3185 180.348C14.6915 181.132 15.2142 182.036 15.8802 183.056L16.9203 182.377ZM14.8747 178.141C14.6779 176.44 14.4725 172.754 14.778 168.846C15.0858 164.91 15.9038 160.88 17.6632 158.388L16.6485 157.672C14.6819 160.458 13.8499 164.783 13.5397 168.75C13.2274 172.745 13.4359 176.511 13.6409 178.284L14.8747 178.141ZM17.6632 158.388C19.511 155.77 20.6785 154.723 21.676 154.219C22.1727 153.967 22.6535 153.837 23.2095 153.728C23.7406 153.624 24.4291 153.527 25.1625 153.356L24.8812 152.146C24.1608 152.314 23.6049 152.385 22.9707 152.51C22.3614 152.629 21.756 152.786 21.1155 153.111C19.8384 153.756 18.5266 155.011 16.6485 157.672L17.6632 158.388ZM25.6171 152.928C26.7937 148.974 29.4507 146.468 33.5803 145.118C37.7513 143.756 43.4157 143.581 50.5185 144.364L50.6547 143.129C43.495 142.34 37.6191 142.492 33.1945 143.938C28.7284 145.397 25.7341 148.18 24.4267 152.574L25.6171 152.928Z" fill="#222829"/>
<path fill-rule="evenodd" clip-rule="evenodd" d="M416.778 68C431.26 68 443 79.7401 443 94.2222C443 96.7527 445.32 99.3841 444.688 101.868C443.173 107.827 443 127 425.081 127C407.669 127 399.458 115.747 393.636 105.103C393.341 105.133 393.043 105.148 392.741 105.148C387.913 105.148 384 101.235 384 96.4074C384 92.0518 387.186 88.4403 391.354 87.776C394.227 76.4107 404.52 68 416.778 68ZM390.977 94.8281L391.882 98.2053Z" fill="white"/>
<path d="M390.977 94.8281L391.882 98.2053M416.778 68C431.26 68 443 79.7401 443 94.2222C443 96.7527 445.32 99.3841 444.688 101.868C443.173 107.827 443 127 425.081 127C407.669 127 399.458 115.747 393.636 105.103C393.341 105.133 393.043 105.148 392.741 105.148C387.913 105.148 384 101.235 384 96.4074C384 92.0518 387.186 88.4403 391.354 87.776C394.227 76.4107 404.52 68 416.778 68Z" stroke="black" stroke-width="2.62222" stroke-linecap="round" stroke-linejoin="round"/>
<path d="M429.562 92.1465C431.747 92.8749 432.839 94.3317 432.839 96.5169C432.839 98.702 431.747 100.159 429.562 100.887" stroke="black" stroke-width="1.74815" stroke-linecap="round" stroke-linejoin="round"/>
<path fill-rule="evenodd" clip-rule="evenodd" d="M419.386 114.168C417.231 112.819 415.619 110.504 415.619 110.504C415.619 110.504 420.82 109.369 425.191 109.335C429.561 109.3 434.762 110.504 434.762 110.504C434.762 110.504 433.15 112.819 430.996 114.168C430.009 114.785 426.939 115.091 425.239 115.091C423.539 115.091 420.362 114.779 419.386 114.168Z" stroke="black" stroke-width="1.74815" stroke-linecap="round" stroke-linejoin="round"/>
<path d="M420.856 114.107C420.856 114.107 423.024 113.233 425.191 113.233C427.359 113.233 429.526 114.107 429.526 114.107" stroke="black" stroke-width="0.874074" stroke-linecap="round" stroke-linejoin="round"/>
<path d="M436.444 88.2127C437.892 88.2127 439.066 87.0387 439.066 85.5905C439.066 84.1423 437.892 82.9683 436.444 82.9683C434.996 82.9683 433.822 84.1423 433.822 85.5905C433.822 87.0387 434.996 88.2127 436.444 88.2127Z" fill="black"/>
<path d="M430.93 84.6434C433.405 83.594 435.277 83.025 436.546 82.9364C437.814 82.8477 439.43 83.1728 441.393 83.9117" stroke="black" stroke-width="1.31111" stroke-linecap="round" stroke-linejoin="round"/>
<path d="M420.492 88.2127C419.044 88.2127 417.87 87.0387 417.87 85.5905C417.87 84.1423 419.044 82.9683 420.492 82.9683C421.94 82.9683 423.114 84.1423 423.114 85.5905C423.114 87.0387 421.94 88.2127 420.492 88.2127Z" fill="black"/>
<path d="M426.006 84.6434C423.53 83.594 421.658 83.025 420.39 82.9364C419.122 82.8477 417.506 83.1728 415.542 83.9117" stroke="black" stroke-width="1.31111" stroke-linecap="round" stroke-linejoin="round"/>
<path fill-rule="evenodd" clip-rule="evenodd" d="M433.226 80.2374C433.226 80.2374 438.263 80.0419 439.702 80.6901C441.14 81.3384 440.947 82.4749 440.947 82.4749C440.947 82.4749 440.205 81.6563 439.213 81.1489C438.221 80.6414 433.226 80.2374 433.226 80.2374Z" fill="black" stroke="black" stroke-width="0.874074" stroke-linecap="round" stroke-linejoin="round"/>
<path fill-rule="evenodd" clip-rule="evenodd" d="M423.711 80.2374C423.711 80.2374 418.674 80.0419 417.235 80.6901C415.797 81.3384 415.99 82.4749 415.99 82.4749C415.99 82.4749 416.732 81.6563 417.724 81.1489C418.716 80.6414 423.711 80.2374 423.711 80.2374Z" fill="black" stroke="black" stroke-width="0.874074" stroke-linecap="round" stroke-linejoin="round"/>
<path fill-rule="evenodd" clip-rule="evenodd" d="M427.356 85.6136C427.165 85.9083 427.033 86.4531 426.959 87.248H426.005C425.687 84.2906 423.595 82.7599 419.728 82.6562C416.496 82.4486 414.563 83.7458 413.927 86.5476H412.656L410.987 84.9132V82.3448C414.536 81.4628 417.45 81.0996 419.728 81.2552C421.391 81.3689 423.361 81.7816 425.696 82.3054L426.561 82.5005C426.962 82.5911 427.598 82.6949 428.468 82.8118L428.695 82.7809C429.45 82.6766 430.01 82.5831 430.375 82.5005L431.346 82.2817C433.635 81.7692 435.571 81.3672 437.209 81.2552C439.464 81.1011 442.342 81.4556 445.843 82.3185L445.95 82.3448V84.9132L444.281 86.5476H443.01C442.374 83.7458 440.44 82.4486 437.209 82.6562C433.381 82.7589 431.291 84.2601 430.942 87.1597L430.932 87.248H429.978L429.968 87.15C429.893 86.4082 429.763 85.896 429.581 85.6136C429.395 85.3265 429.038 85.0975 428.51 84.9266L428.468 84.9132C427.917 85.0855 427.546 85.319 427.356 85.6136Z" fill="black" stroke="black" stroke-width="0.437037" stroke-linecap="round" stroke-linejoin="round"/>
<path d="M413.927 86.5127C413.927 90.5598 415.86 92.5833 419.727 92.5833C423.595 92.5833 425.687 90.7933 426.005 87.2132" stroke="black" stroke-width="0.655556" stroke-linecap="round" stroke-linejoin="round"/>
<path d="M443.01 86.5127C443.01 90.5598 441.077 92.5833 437.21 92.5833C433.342 92.5833 431.25 90.7933 430.932 87.2132" stroke="black" stroke-width="0.655556" stroke-linecap="round" stroke-linejoin="round"/>
<path fill-rule="evenodd" clip-rule="evenodd" d="M411.971 82.2036L390.665 85.6999L390.228 86.6832L411.971 84.4981V82.2036Z" fill="black" stroke="black" stroke-width="0.437037" stroke-linecap="round" stroke-linejoin="round"/>
<path fill-rule="evenodd" clip-rule="evenodd" d="M390.025 88.303H394.502L398.641 98.1555C399.151 90.9875 399.406 86.7628 399.406 85.4814C399.406 83.5593 396.051 79.5292 398.641 76.1944C399.915 74.5534 402.46 72.2655 404.213 71.824C406.023 71.3683 391.211 68.437 387.933 78.0518C385.748 84.4617 386.445 87.8788 390.025 88.303Z" fill="black" stroke="black" stroke-width="1.31111" stroke-linecap="round" stroke-linejoin="round"/>
<path fill-rule="evenodd" clip-rule="evenodd" d="M188.009 69.3162C202.136 69.3162 213.588 80.7685 213.588 94.8956C213.588 109.023 202.136 120.475 188.009 120.475C177.685 120.475 168.789 114.359 164.748 105.552L164.702 105.553L164.561 105.554C159.852 105.554 156.035 101.736 156.035 97.0272C156.035 92.7783 159.142 89.2553 163.209 88.6074C166.011 77.5207 176.052 69.3162 188.009 69.3162ZM162.841 95.4866L163.724 98.781Z" fill="white"/>
<path d="M162.841 95.4866L163.724 98.781M188.009 69.3162C202.136 69.3162 213.588 80.7685 213.588 94.8956C213.588 109.023 202.136 120.475 188.009 120.475C177.685 120.475 168.789 114.359 164.748 105.552L164.702 105.553L164.561 105.554C159.852 105.554 156.035 101.736 156.035 97.0272C156.035 92.7783 159.142 89.2553 163.209 88.6074C166.011 77.5207 176.052 69.3162 188.009 69.3162Z" stroke="black" stroke-width="2.55794" stroke-linecap="round" stroke-linejoin="round"/>
<path fill-rule="evenodd" clip-rule="evenodd" d="M200.427 92.9771C200.427 92.9771 202.101 93.2581 202.93 93.9338C204.322 95.0684 205.265 97.2676 205.144 98.5811C204.855 101.725 199.946 101.862 199.946 101.862C199.946 101.862 205.914 102.408 205.914 98.5811C205.914 96.8376 204.788 94.9024 202.93 93.7972C202.069 93.285 200.427 92.9771 200.427 92.9771Z" fill="black" stroke="black" stroke-width="0.639485" stroke-linecap="round" stroke-linejoin="round"/>
<path d="M185.168 112.309C185.168 112.309 184.497 111.258 184.965 109.86C185.434 108.461 186.67 107.824 186.67 107.824" stroke="black" stroke-width="0.639485" stroke-linecap="round" stroke-linejoin="round"/>
<path fill-rule="evenodd" clip-rule="evenodd" d="M189.459 110.605L196.878 109.09L199.915 109.053L202.122 108.446L204.693 108.735C204.693 108.735 202.918 109.422 199.505 109.842C196.092 110.261 189.459 110.605 189.459 110.605Z" stroke="black" stroke-width="1.27897" stroke-linecap="round" stroke-linejoin="round"/>
<path d="M196.429 114.506C196.429 114.506 198.063 114.617 198.88 114.506C199.697 114.396 200.372 113.973 200.372 113.973" stroke="black" stroke-width="0.639485" stroke-linecap="round" stroke-linejoin="round"/>
<path fill-rule="evenodd" clip-rule="evenodd" d="M192.058 83.9175C193.471 83.9175 194.616 85.0627 194.616 86.4754C194.616 87.8881 193.471 89.0334 192.058 89.0334C190.646 89.0334 189.5 87.8881 189.5 86.4754C189.5 85.0627 190.646 83.9175 192.058 83.9175ZM206.767 83.9175C208.179 83.9175 209.325 85.0627 209.325 86.4754C209.325 87.8881 208.179 89.0334 206.767 89.0334C205.354 89.0334 204.209 87.8881 204.209 86.4754C204.209 85.0627 205.354 83.9175 206.767 83.9175ZM191.206 84.9833C190.853 84.9833 190.566 85.2696 190.566 85.6228C190.566 85.976 190.853 86.2623 191.206 86.2623C191.559 86.2623 191.845 85.976 191.845 85.6228C191.845 85.2696 191.559 84.9833 191.206 84.9833ZM205.914 84.9833C205.561 84.9833 205.274 85.2696 205.274 85.6228C205.274 85.976 205.561 86.2623 205.914 86.2623C206.267 86.2623 206.553 85.976 206.553 85.6228C206.553 85.2696 206.267 84.9833 205.914 84.9833Z" fill="black"/>
<path fill-rule="evenodd" clip-rule="evenodd" d="M201.906 80.3299C202.225 79.797 208.301 77.8786 210.432 78.1983C212.564 78.518 215.655 81.2892 215.655 81.2892C215.655 81.2892 212.777 80.1168 210.112 80.1168C207.448 80.1168 203.718 82.0352 203.718 82.0352C203.718 82.0352 201.586 80.8628 201.906 80.3299Z" fill="black" stroke="black" stroke-width="0.426323" stroke-linecap="round" stroke-linejoin="round"/>
<path fill-rule="evenodd" clip-rule="evenodd" d="M196.855 80.3299C196.535 79.797 190.46 77.8786 188.328 78.1983C186.197 78.518 183.106 81.2892 183.106 81.2892C183.106 81.2892 185.984 80.1168 188.648 80.1168C191.313 80.1168 195.043 82.0352 195.043 82.0352C195.043 82.0352 197.175 80.8628 196.855 80.3299Z" fill="black" stroke="black" stroke-width="0.426323" stroke-linecap="round" stroke-linejoin="round"/>
<path fill-rule="evenodd" clip-rule="evenodd" d="M183.585 82.0448C181.149 83.8492 182.637 91.9692 188.592 91.9692C194.547 91.9692 198.469 85.4843 197.254 83.0759C196.039 80.6675 186.021 80.2403 183.585 82.0448Z" stroke="black" stroke-width="0.852647" stroke-linecap="round" stroke-linejoin="round"/>
<path fill-rule="evenodd" clip-rule="evenodd" d="M215.44 82.0448C217.876 83.8492 216.387 91.9692 210.432 91.9692C204.477 91.9692 200.555 85.4843 201.77 83.0759C202.986 80.6675 213.004 80.2403 215.44 82.0448Z" stroke="black" stroke-width="0.852647" stroke-linecap="round" stroke-linejoin="round"/>
<path d="M194.647 81.5134H204.392" stroke="black" stroke-width="0.852647" stroke-linecap="round" stroke-linejoin="round"/>
<path d="M197.354 83.189H201.684" stroke="black" stroke-width="0.852647" stroke-linecap="round" stroke-linejoin="round"/>
<path d="M182.467 84.4509L162.624 88.1568" stroke="black" stroke-width="0.852647" stroke-linecap="round" stroke-linejoin="round"/>
<path fill-rule="evenodd" clip-rule="evenodd" d="M162.532 89.1217C160.923 89.3825 158.865 87.9794 157.626 85.6484C156.203 82.9717 156.397 80.0851 158.06 79.2008C158.198 79.1276 158.342 79.0704 158.49 79.0286C157.244 77.2908 157.15 74.693 158.439 72.4604C159.079 71.352 159.967 70.4938 160.96 69.9363C160.664 68.3398 160.899 66.6742 161.746 65.2057C162.641 63.6568 164.066 62.5891 165.703 62.0747C165.804 61.1625 166.088 60.265 166.569 59.4309C167.887 57.1486 170.357 55.911 172.96 55.9492C173.745 53.2512 175.987 51.3041 178.629 51.3041C179.715 51.3041 180.734 51.6332 181.611 52.2082C182.936 50.866 184.834 50.0251 186.942 50.0251C189.21 50.0251 191.235 50.9978 192.564 52.5206C193.763 51.7495 195.178 51.3041 196.695 51.3041C201.021 51.3041 204.528 54.9306 204.528 59.4043L204.528 59.473C204.806 59.4277 205.091 59.4043 205.381 59.4043C208.383 59.4043 210.817 61.9094 210.817 64.9998C210.817 65.9627 210.58 66.8689 210.164 67.6601C212.433 70.8997 211.585 73.8321 207.619 76.4572C205.339 77.9666 195.721 78.5199 190.001 78.0558C185.783 77.7137 176.935 74.854 175.219 74.5387C174.408 74.3898 175.545 75.4557 178.629 77.7362C174.997 80.6306 173.163 82.7047 173.126 83.9589L173.126 83.9966C173.126 85.2217 172.226 89.9636 170.427 98.2225L170.316 98.7326L166.278 89.1217H162.532Z" fill="black" stroke="black" stroke-width="1.27897" stroke-linecap="round" stroke-linejoin="round"/>
</g>
<defs>
<filter id="filter0_d_616_1102" x="101" y="0" width="170" height="170" filterUnits="userSpaceOnUse" color-interpolation-filters="sRGB">
<feFlood flood-opacity="0" result="BackgroundImageFix"/>
<feColorMatrix in="SourceAlpha" type="matrix" values="0 0 0 0 0 0 0 0 0 0 0 0 0 0 0 0 0 0 127 0" result="hardAlpha"/>
<feOffset/>
<feGaussianBlur stdDeviation="20"/>
<feComposite in2="hardAlpha" operator="out"/>
<feColorMatrix type="matrix" values="0 0 0 0 0.160784 0 0 0 0 0.142814 0 0 0 0 0.133333 0 0 0 0.05 0"/>
<feBlend mode="normal" in2="BackgroundImageFix" result="effect1_dropShadow_616_1102"/>
<feBlend mode="normal" in="SourceGraphic" in2="effect1_dropShadow_616_1102" result="shape"/>
</filter>
<filter id="filter1_d_616_1102" x="-40" y="90" width="170" height="170" filterUnits="userSpaceOnUse" color-interpolation-filters="sRGB">
<feFlood flood-opacity="0" result="BackgroundImageFix"/>
<feColorMatrix in="SourceAlpha" type="matrix" values="0 0 0 0 0 0 0 0 0 0 0 0 0 0 0 0 0 0 127 0" result="hardAlpha"/>
<feOffset/>
<feGaussianBlur stdDeviation="20"/>
<feComposite in2="hardAlpha" operator="out"/>
<feColorMatrix type="matrix" values="0 0 0 0 0.160784 0 0 0 0 0.142814 0 0 0 0 0.133333 0 0 0 0.05 0"/>
<feBlend mode="normal" in2="BackgroundImageFix" result="effect1_dropShadow_616_1102"/>
<feBlend mode="normal" in="SourceGraphic" in2="effect1_dropShadow_616_1102" result="shape"/>
</filter>
<filter id="filter2_d_616_1102" x="206" y="110" width="170" height="170" filterUnits="userSpaceOnUse" color-interpolation-filters="sRGB">
<feFlood flood-opacity="0" result="BackgroundImageFix"/>
<feColorMatrix in="SourceAlpha" type="matrix" values="0 0 0 0 0 0 0 0 0 0 0 0 0 0 0 0 0 0 127 0" result="hardAlpha"/>
<feOffset/>
<feGaussianBlur stdDeviation="20"/>
<feComposite in2="hardAlpha" operator="out"/>
<feColorMatrix type="matrix" values="0 0 0 0 0.160784 0 0 0 0 0.142814 0 0 0 0 0.133333 0 0 0 0.05 0"/>
<feBlend mode="normal" in2="BackgroundImageFix" result="effect1_dropShadow_616_1102"/>
<feBlend mode="normal" in="SourceGraphic" in2="effect1_dropShadow_616_1102" result="shape"/>
</filter>
<filter id="filter3_d_616_1102" x="330" y="12" width="170" height="170" filterUnits="userSpaceOnUse" color-interpolation-filters="sRGB">
<feFlood flood-opacity="0" result="BackgroundImageFix"/>
<feColorMatrix in="SourceAlpha" type="matrix" values="0 0 0 0 0 0 0 0 0 0 0 0 0 0 0 0 0 0 127 0" result="hardAlpha"/>
<feOffset/>
<feGaussianBlur stdDeviation="20"/>
<feComposite in2="hardAlpha" operator="out"/>
<feColorMatrix type="matrix" values="0 0 0 0 0.160784 0 0 0 0 0.142814 0 0 0 0 0.133333 0 0 0 0.05 0"/>
<feBlend mode="normal" in2="BackgroundImageFix" result="effect1_dropShadow_616_1102"/>
<feBlend mode="normal" in="SourceGraphic" in2="effect1_dropShadow_616_1102" result="shape"/>
</filter>
<clipPath id="clip0_616_1102">
<rect width="460" height="280" fill="white"/>
</clipPath>
<clipPath id="clip1_616_1102">
<rect width="17" height="17" fill="white" transform="translate(231 17)"/>
</clipPath>
</defs>
</svg>
