<svg width="18" height="20" viewBox="0 0 18 20" fill="none" xmlns="http://www.w3.org/2000/svg">
<path d="M3.7726 8.63288L8.53151 0.964386L13.2658 8.63288H3.7726ZM14.0301 19.6055C12.9288 19.6055 11.9959 19.2192 11.2315 18.4466C10.4671 17.674 10.0849 16.7452 10.0849 15.6603C10.0849 14.5589 10.4712 13.6219 11.2438 12.8493C12.0164 12.0767 12.9452 11.6904 14.0301 11.6904C15.1315 11.6904 16.0685 12.0767 16.8411 12.8493C17.6137 13.6219 18 14.5589 18 15.6603C18 16.7616 17.6137 17.6945 16.8411 18.4589C16.0685 19.2233 15.1315 19.6055 14.0301 19.6055ZM0 19.0137V12.1589H6.85479V19.0137H0Z" fill="#C5C9CC"/>
<path d="M8.53151 0.964386L3.7726 8.63288H13.2658L8.53151 0.964386Z" fill="#4D5253"/>
</svg>
