<svg width="657" height="657" viewBox="0 0 657 657" fill="none" xmlns="http://www.w3.org/2000/svg">
<path fill-rule="evenodd" clip-rule="evenodd" d="M359.477 160.536C492.025 160.536 599.477 267.987 599.477 400.536C599.477 533.084 532.025 640.536 359.477 640.536C233.319 640.536 163.343 583.095 134.835 500.403C92.8133 498 59.4766 463.161 59.4766 420.536C59.4766 380.671 88.6354 347.616 126.789 341.536C153.076 237.515 247.286 160.536 359.477 160.536ZM123.335 406.081L131.618 436.99Z" fill="white"/>
<path d="M123.335 406.081L131.618 436.99M359.477 160.536C492.025 160.536 599.477 267.987 599.477 400.536C599.477 533.084 532.025 640.536 359.477 640.536C233.319 640.536 163.343 583.095 134.835 500.403C92.8133 498 59.4766 463.161 59.4766 420.536C59.4766 380.671 88.6354 347.616 126.789 341.536C153.076 237.515 247.286 160.536 359.477 160.536Z" stroke="#222829" stroke-width="24" stroke-linecap="round" stroke-linejoin="round"/>
<path d="M476.477 381.536C496.477 388.202 506.477 401.536 506.477 421.536C506.477 441.536 496.477 454.869 476.477 461.536" stroke="#222829" stroke-width="16" stroke-linecap="round" stroke-linejoin="round"/>
<path fill-rule="evenodd" clip-rule="evenodd" d="M387.287 535.137C394.168 519.668 406.898 519.668 425.477 535.137L426.032 534.678C444.309 519.67 456.854 519.823 463.666 535.137C470.478 550.452 458.07 565.437 426.441 580.092L425.477 580.536C393.136 565.739 380.406 550.606 387.287 535.137Z" fill="#222829" stroke="#222829" stroke-width="16" stroke-linecap="round" stroke-linejoin="round"/>
<path d="M487.477 318.036C487.477 318.036 495.948 314.536 507.242 314.536C518.536 314.536 530.288 319.536 550.536 319.536C570.783 319.536 583.477 314.536 583.477 314.536" stroke="#222829" stroke-width="12" stroke-linecap="round" stroke-linejoin="round"/>
<path d="M445.477 318.036C445.477 318.036 437.006 314.536 425.712 314.536C414.418 314.536 402.666 319.536 382.418 319.536C362.171 319.536 349.477 314.536 349.477 314.536" stroke="#222829" stroke-width="12" stroke-linecap="round" stroke-linejoin="round"/>
<path fill-rule="evenodd" clip-rule="evenodd" d="M510.018 272.541C510.018 272.541 556.121 270.752 569.29 276.685C582.459 282.618 580.687 293.02 580.687 293.02C580.687 293.02 573.896 285.528 564.817 280.884C555.737 276.239 510.018 272.541 510.018 272.541Z" fill="#222829" stroke="#222829" stroke-width="8" stroke-linecap="round" stroke-linejoin="round"/>
<path fill-rule="evenodd" clip-rule="evenodd" d="M422.936 272.541C422.936 272.541 376.833 270.752 363.664 276.685C350.495 282.618 352.267 293.02 352.267 293.02C352.267 293.02 359.058 285.528 368.137 280.884C377.217 276.239 422.936 272.541 422.936 272.541Z" fill="#222829" stroke="#222829" stroke-width="8" stroke-linecap="round" stroke-linejoin="round"/>
<path fill-rule="evenodd" clip-rule="evenodd" d="M623.674 280.36C629.909 288.236 631.69 333.129 603.188 359.12C585.881 374.902 545.857 379.023 519.462 369.359C502.559 363.169 494.304 345.258 491.921 341.126L491.851 341.005C484.295 328.157 476.17 319.333 467.476 314.533C458.921 319.256 450.916 327.878 443.463 340.396L443.102 341.005C440.815 344.895 432.565 363.107 415.491 369.359C389.096 379.023 349.072 374.902 331.765 359.12C303.263 333.129 305.044 288.236 311.279 280.36C317.514 272.484 360.268 266.971 395.005 273.272C429.742 279.573 444.968 295.818 452.009 298.475C456.406 300.135 461.373 300.931 466.91 300.863L466.911 300.838L467.477 300.854L468.042 300.838L468.043 300.863C473.58 300.931 478.547 300.135 482.944 298.475C489.985 295.818 505.211 279.573 539.948 273.272C574.686 266.971 617.439 272.484 623.674 280.36ZM325.53 285.874C305.935 299.263 323.749 345.731 342.454 359.12C361.158 372.509 405.693 369.359 416.381 362.27C427.07 355.182 451.119 324.466 443.102 304.776C435.086 285.086 354.033 271.697 325.53 285.874ZM609.423 285.874C580.92 271.697 499.867 285.086 491.851 304.776C483.835 324.466 507.883 355.182 518.572 362.27C529.26 369.359 573.795 372.509 592.5 359.12C611.204 345.731 629.018 299.263 609.423 285.874Z" fill="#222829" stroke="#222829" stroke-width="4" stroke-linecap="round" stroke-linejoin="round"/>
<path fill-rule="evenodd" clip-rule="evenodd" d="M315.477 290.536L120.477 322.536L116.477 331.536L315.477 311.536V290.536Z" fill="#222829" stroke="#222829" stroke-width="4" stroke-linecap="round" stroke-linejoin="round"/>
<path fill-rule="evenodd" clip-rule="evenodd" d="M106.477 500.536L139.477 508.536L190.477 585.536L189.488 585.674C181.87 586.706 177.2 586.66 175.477 585.536C162.586 577.122 155.143 562.771 143.477 550.536C129.372 535.743 117.039 519.076 106.477 500.536ZM382.477 26.5357C422.96 31.0007 458.393 50.2637 488.3 75.9627L490.786 76.4367C531.425 84.3277 575.788 93.0387 595.477 121.536C620.81 158.202 631.144 201.202 626.477 250.536C609.537 210.568 583.478 178.536 567.51 175.104C588.386 211.694 595.477 242.72 595.477 254.536C595.477 293.536 578.81 334.202 571.477 359.536C571.477 324.869 563.81 266.869 518.477 223.536C464.495 171.935 369.294 199.536 329.477 199.536C298.752 199.536 315.443 246.415 288.097 280.947C292.153 294.536 300.477 314.536 321.477 333.536C289.037 333.519 276.204 314.077 266.292 293.392L262.963 293.946C260.366 294.383 257.778 294.846 255.387 295.415C258.578 308.481 265.693 324.082 276.732 342.218C262.212 329.892 251.744 315.881 245.327 300.184C244.979 300.603 244.693 301.053 244.477 301.536C220.841 354.275 220.477 374.536 208.477 436.536H193.477L192.105 433.387C177.406 399.793 165.53 377.176 156.477 365.536L155.636 364.465C141.886 347.119 127.435 337.036 115.477 340.536L114.722 340.766L114.187 340.939C105.4 343.842 85.7175 353.263 71.4775 370.536C66.2265 376.905 60.5605 388.905 54.4775 406.536L53.5425 405.13L52.1775 403.053C39.4835 383.607 32.5835 369.101 31.4775 359.536C27.5955 325.978 23.4775 215.536 59.4775 164.536C95.4775 113.536 107.384 120.069 135.477 113.536C159.477 32.8687 244.678 11.3367 382.477 26.5357Z" fill="#222829"/>
<path d="M106.478 500.536L107.891 494.705C105.565 494.141 103.125 495.014 101.685 496.927C100.245 498.839 100.079 501.425 101.264 503.506L106.478 500.536ZM139.478 508.536L144.48 505.223C143.644 503.961 142.362 503.061 140.891 502.705L139.478 508.536ZM190.478 585.536L191.306 591.478C193.347 591.194 195.1 589.882 195.947 588.003C196.795 586.124 196.618 583.941 195.48 582.223L190.478 585.536ZM189.489 585.674L190.295 591.619C190.303 591.618 190.31 591.617 190.317 591.616L189.489 585.674ZM175.478 585.536L178.757 580.511L175.478 585.536ZM143.478 550.536L139.135 554.676L143.478 550.536ZM382.478 26.5356L381.82 32.4997L382.478 26.5356ZM488.301 75.9627L484.391 80.5126C485.186 81.1966 486.146 81.6597 487.176 81.8557L488.301 75.9627ZM490.787 76.4366L491.93 70.5466C491.924 70.5456 491.918 70.5446 491.912 70.5436L490.787 76.4366ZM595.478 121.536L590.541 124.946L595.478 121.536ZM626.478 250.536L620.954 252.877C622.026 255.407 624.679 256.885 627.394 256.465C630.109 256.046 632.192 253.836 632.451 251.101L626.478 250.536ZM567.51 175.104L568.771 169.238C566.457 168.741 564.067 169.65 562.669 171.56C561.271 173.469 561.126 176.022 562.298 178.078L567.51 175.104ZM571.478 359.536H565.478C565.478 362.524 567.677 365.057 570.635 365.476C573.594 365.896 576.41 364.075 577.241 361.204L571.478 359.536ZM518.478 223.536L514.332 227.873L518.478 223.536ZM288.098 280.947L283.395 277.222C282.179 278.756 281.789 280.787 282.349 282.663L288.098 280.947ZM321.478 333.536L321.475 339.536C323.957 339.537 326.183 338.01 327.076 335.694C327.969 333.378 327.344 330.752 325.503 329.087L321.478 333.536ZM266.293 293.392L271.704 290.799C270.55 288.39 267.942 287.035 265.307 287.473L266.293 293.392ZM262.964 293.946L261.978 288.028L261.968 288.029L262.964 293.946ZM255.388 295.415L253.998 289.578C252.444 289.948 251.102 290.922 250.269 292.285C249.436 293.648 249.18 295.287 249.559 296.838L255.388 295.415ZM276.733 342.218L272.85 346.792C275.094 348.698 278.39 348.693 280.629 346.781C282.868 344.869 283.389 341.614 281.858 339.099L276.733 342.218ZM245.328 300.184L250.882 297.913C250.084 295.963 248.322 294.574 246.24 294.254C244.157 293.933 242.059 294.729 240.712 296.35L245.328 300.184ZM244.478 301.536L239.003 299.082L244.478 301.536ZM208.478 436.536V442.536C211.352 442.536 213.822 440.498 214.369 437.676L208.478 436.536ZM193.478 436.536L187.977 438.933C188.931 441.121 191.091 442.536 193.478 442.536V436.536ZM192.106 433.387L197.606 430.991L197.603 430.982L192.106 433.387ZM156.478 365.536L161.214 361.852C161.208 361.845 161.203 361.838 161.197 361.831L156.478 365.536ZM155.637 364.465L160.356 360.759C160.35 360.752 160.345 360.745 160.339 360.738L155.637 364.465ZM115.478 340.536L113.793 334.777C113.771 334.784 113.75 334.79 113.728 334.796L115.478 340.536ZM114.723 340.766L112.974 335.026C112.942 335.036 112.909 335.046 112.877 335.057L114.723 340.766ZM114.188 340.939L112.342 335.23C112.33 335.234 112.318 335.238 112.306 335.242L114.188 340.939ZM71.4776 370.536L66.8476 366.719L71.4776 370.536ZM54.4776 406.536L49.4806 409.858C50.7446 411.758 52.9756 412.777 55.2386 412.487C57.5026 412.198 59.4056 410.649 60.1496 408.493L54.4776 406.536ZM53.5426 405.13L48.5296 408.426C48.5346 408.435 48.5406 408.444 48.5466 408.452L53.5426 405.13ZM52.1776 403.053L47.1526 406.332C47.1566 406.338 47.1596 406.343 47.1636 406.349L52.1776 403.053ZM31.4776 359.536L37.4376 358.846L31.4776 359.536ZM135.478 113.536L136.837 119.38C138.937 118.891 140.614 117.314 141.229 115.247L135.478 113.536ZM105.064 506.367L138.064 514.367L140.891 502.705L107.891 494.705L105.064 506.367ZM134.476 511.849L185.476 588.849L195.48 582.223L144.48 505.223L134.476 511.849ZM189.65 579.593L188.662 579.731L190.317 591.616L191.306 591.478L189.65 579.593ZM188.683 579.728C185.003 580.227 182.253 580.433 180.332 580.414C179.372 580.405 178.755 580.339 178.403 580.275C177.985 580.198 178.247 580.178 178.757 580.511L172.198 590.56C173.571 591.456 175.062 591.863 176.242 592.079C177.489 592.307 178.838 592.4 180.214 592.413C182.963 592.44 186.357 592.153 190.295 591.619L188.683 579.728ZM178.757 580.511C173.146 576.849 168.55 571.784 163.706 565.723C159.024 559.866 153.894 552.766 147.82 546.395L139.135 554.676C144.728 560.542 149.153 566.735 154.332 573.215C159.348 579.492 164.919 585.809 172.198 590.56L178.757 580.511ZM147.82 546.395C134.067 531.971 122.022 515.701 111.691 497.566L101.264 503.506C112.057 522.452 124.679 539.515 139.135 554.676L147.82 546.395ZM381.82 32.4997C420.77 36.7957 455.11 55.3526 484.391 80.5126L492.212 71.4117C461.678 45.1737 425.152 25.2056 383.136 20.5716L381.82 32.4997ZM487.176 81.8557L489.662 82.3307L491.912 70.5436L489.426 70.0686L487.176 81.8557ZM489.643 82.3266C510.058 86.2906 530.836 90.3627 548.951 96.9027C567.089 103.45 581.73 112.194 590.541 124.946L600.414 118.125C589.536 102.381 572.152 92.5196 553.026 85.6156C533.878 78.7026 512.154 74.4736 491.93 70.5466L489.643 82.3266ZM590.541 124.946C614.981 160.32 625.054 201.875 620.505 249.971L632.451 251.101C637.235 200.53 626.641 156.085 600.414 118.125L590.541 124.946ZM632.002 248.194C623.342 227.76 612.326 209.287 601.335 195.396C595.841 188.453 590.271 182.549 584.909 178.1C579.649 173.736 574.139 170.392 568.771 169.238L566.249 180.971C568.864 181.532 572.6 183.48 577.247 187.335C581.792 191.107 586.789 196.352 591.924 202.842C602.19 215.816 612.675 233.343 620.954 252.877L632.002 248.194ZM562.298 178.078C582.873 214.139 589.478 244.125 589.478 254.536H601.478C601.478 241.316 593.899 209.25 572.721 172.131L562.298 178.078ZM589.478 254.536C589.478 273.243 585.472 292.555 580.449 310.547C577.943 319.524 575.205 328.101 572.615 336.073C570.043 343.991 567.583 351.414 565.714 357.867L577.241 361.204C579.04 354.991 581.413 347.83 584.028 339.78C586.626 331.783 589.43 323.006 592.007 313.774C597.151 295.35 601.478 274.829 601.478 254.536H589.478ZM577.478 359.536C577.478 324.211 569.7 264.198 522.624 219.199L514.332 227.873C557.922 269.54 565.478 325.528 565.478 359.536H577.478ZM522.624 219.199C493.908 191.75 454.619 185.73 418.59 186.186C400.495 186.415 382.911 188.286 367.525 190.069C351.927 191.877 338.987 193.536 329.478 193.536V205.536C339.878 205.536 353.769 203.744 368.907 201.99C384.256 200.21 401.312 198.406 418.742 198.185C453.763 197.741 489.066 203.721 514.332 227.873L522.624 219.199ZM329.478 193.536C324.864 193.536 320.756 194.42 317.183 196.32C313.593 198.229 310.901 200.973 308.854 204.148C304.947 210.203 303.144 218.283 301.629 226.158C298.445 242.699 295.96 261.354 283.395 277.222L292.802 284.672C307.582 266.007 310.424 243.957 313.412 228.426C314.983 220.264 316.477 214.466 318.937 210.653C320.073 208.893 321.332 207.705 322.817 206.915C324.319 206.116 326.41 205.536 329.478 205.536V193.536ZM282.349 282.663C286.614 296.951 295.403 318.036 317.452 337.985L325.503 329.087C305.552 311.036 297.695 292.121 293.848 279.231L282.349 282.663ZM321.481 327.536C306.612 327.528 296.725 323.126 289.391 316.702C281.85 310.095 276.592 300.999 271.704 290.799L260.882 295.985C265.907 306.471 272.021 317.438 281.484 325.728C291.155 334.2 303.904 339.527 321.475 339.536L321.481 327.536ZM265.307 287.473L261.978 288.028L263.95 299.865L267.279 299.31L265.307 287.473ZM261.968 288.029C259.356 288.469 256.599 288.959 253.998 289.578L256.778 301.252C258.96 300.732 261.378 300.298 263.96 299.863L261.968 288.029ZM249.559 296.838C252.956 310.745 260.411 326.943 271.607 345.338L281.858 339.099C270.977 321.222 264.202 306.217 261.217 293.991L249.559 296.838ZM280.616 337.644C266.738 325.863 256.891 312.615 250.882 297.913L239.774 302.454C246.598 319.147 257.688 333.921 272.85 346.792L280.616 337.644ZM240.712 296.35C240.042 297.157 239.458 298.067 239.003 299.082L249.953 303.99C249.943 304.013 249.934 304.028 249.93 304.034C249.926 304.041 249.929 304.035 249.943 304.018L240.712 296.35ZM239.003 299.082C215.011 352.616 214.52 373.743 202.587 435.396L214.369 437.676C226.436 375.328 226.674 355.933 249.953 303.99L239.003 299.082ZM208.478 430.536H193.478V442.536H208.478V430.536ZM198.978 434.139L197.606 430.991L186.605 435.784L187.977 438.933L198.978 434.139ZM197.603 430.982C182.913 397.408 170.78 374.152 161.214 361.852L151.742 369.219C160.282 380.2 171.901 402.178 186.609 435.792L197.603 430.982ZM161.197 361.831L160.356 360.759L150.918 368.17L151.759 369.241L161.197 361.831ZM160.339 360.738C153.232 351.772 145.687 344.342 138.057 339.59C130.455 334.855 122.044 332.363 113.793 334.777L117.163 346.294C120.87 345.21 125.664 346.009 131.714 349.776C137.737 353.528 144.292 359.811 150.935 368.192L160.339 360.738ZM113.728 334.796L112.974 335.026L116.473 346.505L117.227 346.275L113.728 334.796ZM112.877 335.057L112.342 335.23L116.035 346.648L116.57 346.475L112.877 335.057ZM112.306 335.242C102.795 338.384 82.0116 348.326 66.8476 366.719L76.1066 374.352C89.4236 358.2 108.008 349.3 116.071 346.636L112.306 335.242ZM66.8476 366.719C60.8516 373.993 54.9016 386.909 48.8056 404.579L60.1496 408.493C66.2186 390.901 71.6026 379.816 76.1066 374.352L66.8476 366.719ZM59.4736 403.214L58.5396 401.808L48.5466 408.452L49.4806 409.858L59.4736 403.214ZM58.5566 401.834L57.1906 399.757L47.1636 406.349L48.5296 408.426L58.5566 401.834ZM57.2016 399.773C50.9436 390.185 46.1966 381.941 42.9006 375.012C39.5706 368.012 37.8816 362.682 37.4376 358.846L25.5176 360.225C26.1796 365.955 28.4936 372.66 32.0636 380.166C35.6676 387.742 40.7176 396.474 47.1526 406.332L57.2016 399.773ZM37.4376 358.846C35.5366 342.413 33.5516 306.802 36.5036 269.044C39.4776 231.009 47.3806 192.078 64.3796 167.996L54.5756 161.076C35.5746 187.994 27.5366 229.783 24.5396 268.109C21.5216 306.711 23.5366 343.101 25.5176 360.225L37.4376 358.846ZM64.3796 167.996C82.2326 142.703 93.5126 132.59 103.151 127.715C107.95 125.287 112.595 124.03 117.967 122.977C123.098 121.971 129.751 121.028 136.837 119.38L134.119 107.692C127.158 109.311 121.787 110 115.66 111.201C109.773 112.354 103.924 113.876 97.7346 117.007C85.3956 123.248 72.7216 135.368 54.5756 161.076L64.3796 167.996ZM141.229 115.247C152.597 77.0367 178.268 52.8246 218.167 39.7896C258.467 26.6226 313.195 24.9307 381.82 32.4997L383.136 20.5716C313.961 12.9416 257.189 14.4166 214.44 28.3826C171.289 42.4806 142.359 69.3677 129.727 111.825L141.229 115.247Z" fill="#222829"/>
</svg>
