<svg width="767" height="767" viewBox="0 0 767 767" fill="none" xmlns="http://www.w3.org/2000/svg">
<path fill-rule="evenodd" clip-rule="evenodd" d="M412.215 207.005C544.763 207.005 652.215 314.457 652.215 447.005C652.215 579.553 584.763 747.005 472.215 747.005C386.898 747.005 258.539 650.782 201.42 546.48C198.404 546.827 195.33 547.005 192.215 547.005C148.032 547.005 112.215 511.188 112.215 467.005C112.215 427.14 141.374 394.085 179.527 388.006C205.814 283.984 300.025 207.005 412.215 207.005ZM176.074 452.55L184.356 483.46Z" fill="white"/>
<path d="M176.074 452.55L184.356 483.46M412.215 207.005C544.763 207.005 652.215 314.457 652.215 447.005C652.215 579.553 584.763 747.005 472.215 747.005C386.898 747.005 258.539 650.782 201.42 546.48C198.404 546.827 195.33 547.005 192.215 547.005C148.032 547.005 112.215 511.188 112.215 467.005C112.215 427.14 141.374 394.085 179.527 388.006C205.814 283.984 300.025 207.005 412.215 207.005Z" stroke="#222829" stroke-width="24" stroke-linecap="round" stroke-linejoin="round"/>
<path d="M517.996 423.788C542.062 465.681 553.159 494.659 551.29 510.721C549.42 526.784 534.395 531.545 506.215 525.005" stroke="#222829" stroke-width="16" stroke-linecap="round" stroke-linejoin="round"/>
<path d="M452.215 597.005C465.991 602.338 479.324 605.005 492.215 605.005C505.106 605.005 518.439 602.338 532.215 597.005" stroke="#222829" stroke-width="16" stroke-linecap="round" stroke-linejoin="round"/>
<path fill-rule="evenodd" clip-rule="evenodd" d="M450.215 344.005C463.47 344.005 474.215 354.75 474.215 368.005C474.215 381.26 463.47 392.005 450.215 392.005C436.96 392.005 426.215 381.26 426.215 368.005C426.215 354.75 436.96 344.005 450.215 344.005ZM588.215 344.005C601.47 344.005 612.215 354.75 612.215 368.005C612.215 381.26 601.47 392.005 588.215 392.005C574.96 392.005 564.215 381.26 564.215 368.005C564.215 354.75 574.96 344.005 588.215 344.005Z" fill="#222829"/>
<path d="M397.692 324.739L474.593 302.688" stroke="#222829" stroke-width="24" stroke-linecap="round" stroke-linejoin="round"/>
<path d="M639.593 324.739L562.692 302.688" stroke="#222829" stroke-width="24" stroke-linecap="round" stroke-linejoin="round"/>
<path fill-rule="evenodd" clip-rule="evenodd" d="M592.687 319.163C627.424 314.195 670.178 318.542 676.413 324.751C682.648 330.961 682.429 368.358 663.927 388.85C652.292 401.737 588.596 402.543 562.201 394.923C553.612 392.443 546.267 381.401 539.414 371.098C532.781 361.127 526.609 351.848 520.215 351.695C513.79 351.542 507.631 360.895 500.983 370.991C494.18 381.322 486.865 392.43 478.229 394.923C451.835 402.543 390.133 403.73 378.504 390.85C360.002 370.358 357.783 330.961 364.018 324.751C370.253 318.542 413.006 314.195 447.743 319.163C482.481 324.13 497.707 327.939 504.748 330.034C509.145 331.343 519.65 331.897 519.65 331.897L520.215 331.91L520.781 331.917C526.319 331.97 531.286 331.343 535.683 330.034C542.724 327.939 557.95 324.13 592.687 319.163ZM378.269 330.715C358.674 340.409 374.488 374.052 383.192 383.745C391.897 393.439 468.432 391.158 479.12 386.026C489.809 380.894 504.857 355.656 496.841 341.4C488.825 327.145 406.771 320.451 378.269 330.715ZM657.238 383.745C665.943 374.052 681.757 340.409 662.162 330.715C633.659 320.451 551.606 327.145 543.59 341.4C535.573 355.656 550.622 380.894 561.31 386.026C571.999 391.158 648.534 393.439 657.238 383.745Z" fill="#222829"/>
<path d="M592.687 319.163L592.97 321.142L592.687 319.163ZM663.927 388.85L665.411 390.191L663.927 388.85ZM562.201 394.923L561.646 396.845L562.201 394.923ZM539.414 371.098L537.749 372.206L539.414 371.098ZM520.215 351.695L520.263 349.696L520.215 351.695ZM500.983 370.991L499.313 369.891L500.983 370.991ZM478.229 394.923L478.784 396.845L478.229 394.923ZM378.504 390.85L379.988 389.51L378.504 390.85ZM364.018 324.751L362.607 323.334L364.018 324.751ZM447.743 319.163L447.46 321.142L447.743 319.163ZM504.748 330.034L505.318 328.117L504.748 330.034ZM519.65 331.897L519.545 333.894C519.565 333.895 519.586 333.896 519.606 333.897L519.65 331.897ZM520.215 331.91L520.172 333.909C520.177 333.909 520.182 333.909 520.188 333.909L520.215 331.91ZM520.781 331.917L520.754 333.917H520.762L520.781 331.917ZM535.683 330.034L536.253 331.951L535.683 330.034ZM383.192 383.745L381.704 385.082L383.192 383.745ZM378.269 330.715L377.591 328.834C377.52 328.859 377.45 328.889 377.382 328.923L378.269 330.715ZM496.841 341.4L495.098 342.381L496.841 341.4ZM662.162 330.715L663.048 328.923C662.98 328.889 662.911 328.859 662.839 328.834L662.162 330.715ZM657.238 383.745L658.726 385.082L657.238 383.745ZM543.59 341.4L541.846 340.42L543.59 341.4ZM677.824 323.334C676.741 322.256 675.071 321.388 673.166 320.657C671.209 319.906 668.789 319.221 666.018 318.607C660.472 317.378 653.36 316.397 645.395 315.771C629.467 314.52 609.944 314.674 592.404 317.183L592.97 321.142C610.167 318.683 629.39 318.527 645.082 319.759C652.927 320.376 659.843 321.336 665.152 322.512C667.809 323.101 670.023 323.736 671.733 324.392C673.496 325.068 674.525 325.694 675.001 326.169L677.824 323.334ZM665.411 390.191C675.036 379.531 679.814 364.611 681.431 351.693C682.242 345.214 682.269 339.151 681.68 334.265C681.385 331.824 680.931 329.634 680.322 327.813C679.725 326.031 678.923 324.429 677.824 323.334L675.001 326.169C675.461 326.627 676.016 327.551 676.529 329.083C677.028 330.576 677.436 332.487 677.708 334.745C678.253 339.257 678.239 344.989 677.462 351.196C675.902 363.653 671.32 377.677 662.442 387.51L665.411 390.191ZM561.646 396.845C575.141 400.741 597.908 402.439 618.682 401.575C629.091 401.142 639.094 400.063 647.266 398.26C651.352 397.359 655.025 396.268 658.083 394.963C661.115 393.669 663.681 392.107 665.411 390.191L662.442 387.51C661.264 388.815 659.294 390.097 656.513 391.284C653.757 392.46 650.339 393.486 646.405 394.354C638.537 396.089 628.784 397.151 618.516 397.578C597.934 398.434 575.656 396.726 562.756 393.002L561.646 396.845ZM537.749 372.206C541.159 377.332 544.779 382.78 548.643 387.252C552.481 391.693 556.781 395.44 561.646 396.845L562.756 393.002C559.032 391.927 555.365 388.912 551.67 384.637C548.001 380.392 544.522 375.167 541.079 369.991L537.749 372.206ZM520.168 353.695C522.449 353.749 525.087 355.49 528.227 359.04C531.288 362.5 534.408 367.184 537.749 372.206L541.079 369.991C537.787 365.041 534.505 360.099 531.223 356.389C528.02 352.768 524.375 349.794 520.263 349.696L520.168 353.695ZM502.653 372.091C506.003 367.005 509.121 362.277 512.179 358.826C515.322 355.281 517.927 353.641 520.168 353.695L520.263 349.696C516.078 349.596 512.392 352.556 509.186 356.173C505.897 359.884 502.611 364.881 499.313 369.891L502.653 372.091ZM478.784 396.845C483.676 395.432 487.98 391.663 491.811 387.199C495.668 382.704 499.268 377.231 502.653 372.091L499.313 369.891C495.894 375.081 492.436 380.328 488.776 384.594C485.089 388.89 481.419 391.921 477.675 393.002L478.784 396.845ZM377.019 392.191C378.752 394.109 381.29 395.641 384.277 396.882C387.287 398.133 390.889 399.146 394.884 399.952C402.876 401.565 412.634 402.392 422.794 402.574C443.081 402.937 465.324 400.731 478.784 396.845L477.675 393.002C464.74 396.736 442.935 398.933 422.865 398.574C412.846 398.395 403.349 397.58 395.676 396.031C391.839 395.257 388.506 394.308 385.813 393.189C383.097 392.06 381.163 390.811 379.988 389.51L377.019 392.191ZM362.607 323.334C361.475 324.461 360.708 326.137 360.172 327.973C359.622 329.856 359.252 332.129 359.055 334.663C358.661 339.733 358.945 346.04 360.009 352.758C362.129 366.147 367.409 381.546 377.019 392.191L379.988 389.51C371.097 379.662 366.016 365.116 363.96 352.132C362.936 345.663 362.678 339.675 363.043 334.972C363.226 332.619 363.561 330.635 364.011 329.095C364.475 327.508 365.002 326.594 365.429 326.169L362.607 323.334ZM448.027 317.183C430.486 314.674 410.964 314.52 395.036 315.771C387.071 316.397 379.959 317.378 374.413 318.607C371.642 319.221 369.222 319.906 367.264 320.657C365.36 321.388 363.689 322.256 362.607 323.334L365.429 326.169C365.905 325.694 366.935 325.068 368.697 324.392C370.407 323.736 372.622 323.101 375.278 322.512C380.587 321.336 387.504 320.376 395.349 319.759C411.041 318.527 430.263 318.683 447.46 321.142L448.027 317.183ZM505.318 328.117C498.148 325.984 482.817 322.158 448.027 317.183L447.46 321.142C482.144 326.103 497.265 329.894 504.178 331.951L505.318 328.117ZM519.65 331.897C519.755 329.9 519.756 329.9 519.756 329.9H519.755C519.755 329.9 519.755 329.9 519.754 329.9C519.753 329.9 519.752 329.9 519.749 329.9C519.745 329.899 519.738 329.899 519.728 329.898C519.71 329.897 519.681 329.896 519.643 329.894C519.567 329.89 519.455 329.883 519.31 329.874C519.019 329.857 518.597 329.831 518.077 329.795C517.036 329.723 515.603 329.614 514.037 329.465C510.839 329.161 507.302 328.708 505.318 328.117L504.178 331.951C506.59 332.669 510.505 333.147 513.658 333.447C515.268 333.601 516.737 333.712 517.803 333.785C518.336 333.822 518.769 333.849 519.07 333.867C519.221 333.876 519.338 333.883 519.419 333.887C519.459 333.89 519.49 333.891 519.511 333.893C519.522 333.893 519.53 333.894 519.535 333.894C519.538 333.894 519.54 333.894 519.542 333.894C519.543 333.894 519.543 333.894 519.544 333.894C519.544 333.894 519.545 333.894 519.65 331.897ZM520.259 329.91L519.694 329.898L519.606 333.897L520.172 333.909L520.259 329.91ZM520.809 329.917L520.243 329.91L520.188 333.909L520.754 333.917L520.809 329.917ZM535.112 328.117C530.941 329.358 526.178 329.969 520.801 329.917L520.762 333.917C526.459 333.972 531.63 333.327 536.253 331.951L535.112 328.117ZM592.404 317.183C557.614 322.158 542.282 325.984 535.112 328.117L536.253 331.951C543.165 329.894 558.286 326.103 592.97 321.142L592.404 317.183ZM384.68 382.409C380.566 377.827 374.583 367.298 372.063 356.765C370.807 351.513 370.457 346.444 371.491 342.201C372.504 338.04 374.845 334.64 379.156 332.508L377.382 328.923C371.895 331.637 368.865 336.078 367.604 341.254C366.364 346.348 366.838 352.114 368.173 357.696C370.837 368.831 377.114 379.97 381.704 385.082L384.68 382.409ZM478.254 384.223C477.195 384.732 475.078 385.294 471.95 385.828C468.888 386.35 465.045 386.817 460.669 387.206C451.921 387.984 441.14 388.445 430.412 388.445C419.677 388.445 409.051 387.983 400.598 386.928C396.367 386.4 392.737 385.73 389.933 384.916C387.025 384.072 385.364 383.171 384.68 382.409L381.704 385.082C383.197 386.744 385.831 387.891 388.817 388.758C391.906 389.654 395.767 390.356 400.103 390.898C408.782 391.981 419.59 392.445 430.412 392.445C441.242 392.445 452.143 391.98 461.024 391.19C465.462 390.795 469.42 390.317 472.623 389.771C475.76 389.235 478.373 388.604 479.986 387.829L478.254 384.223ZM495.098 342.381C498.614 348.634 497.204 357.715 493.184 366.285C491.208 370.498 488.669 374.431 485.996 377.605C483.299 380.806 480.569 383.112 478.254 384.223L479.986 387.829C483.015 386.375 486.175 383.601 489.055 380.182C491.959 376.734 494.685 372.505 496.806 367.984C500.978 359.089 503.084 348.422 498.584 340.42L495.098 342.381ZM378.947 332.597C385.791 330.132 396.027 328.638 407.793 328.048C419.517 327.46 432.605 327.776 445.065 328.856C457.533 329.936 469.309 331.774 478.425 334.206C482.987 335.423 486.821 336.773 489.722 338.218C492.69 339.696 494.398 341.136 495.098 342.381L498.584 340.42C497.28 338.101 494.67 336.214 491.505 334.637C488.274 333.028 484.159 331.596 479.456 330.341C470.042 327.829 458.019 325.963 445.41 324.871C432.792 323.777 419.521 323.454 407.593 324.053C395.707 324.649 384.999 326.166 377.591 328.834L378.947 332.597ZM661.275 332.508C665.585 334.64 667.927 338.04 668.94 342.201C669.973 346.444 669.624 351.513 668.367 356.765C665.847 367.298 659.865 377.827 655.75 382.409L658.726 385.082C663.316 379.97 669.593 368.831 672.258 357.696C673.593 352.114 674.067 346.348 672.826 341.254C671.566 336.078 668.536 331.637 663.048 328.923L661.275 332.508ZM545.333 342.381C546.033 341.136 547.741 339.696 550.709 338.218C553.61 336.773 557.443 335.423 562.006 334.206C571.122 331.774 582.897 329.936 595.366 328.856C607.826 327.776 620.913 327.46 632.637 328.048C644.404 328.638 654.64 330.132 661.484 332.597L662.839 328.834C655.432 326.166 644.723 324.649 632.838 324.053C620.91 323.454 607.639 323.777 595.021 324.871C582.411 325.963 570.389 327.829 560.975 330.341C556.272 331.596 552.157 333.028 548.925 334.637C545.76 336.214 543.15 338.101 541.846 340.42L545.333 342.381ZM562.176 384.223C559.861 383.112 557.132 380.806 554.435 377.605C551.761 374.431 549.222 370.498 547.246 366.285C543.226 357.715 541.816 348.634 545.333 342.381L541.846 340.42C537.347 348.422 539.453 359.089 543.625 367.984C545.745 372.505 548.472 376.734 551.375 380.182C554.256 383.601 557.415 386.375 560.445 387.829L562.176 384.223ZM655.75 382.409C655.067 383.171 653.405 384.072 650.498 384.916C647.694 385.73 644.064 386.4 639.833 386.928C631.38 387.983 620.753 388.445 610.018 388.445C599.29 388.445 588.509 387.984 579.761 387.206C575.386 386.817 571.542 386.35 568.48 385.828C565.352 385.294 563.235 384.732 562.176 384.223L560.445 387.829C562.058 388.604 564.67 389.235 567.808 389.771C571.011 390.317 574.968 390.795 579.407 391.19C588.288 391.98 599.188 392.445 610.018 392.445C620.841 392.445 631.648 391.981 640.328 390.898C644.663 390.356 648.524 389.654 651.613 388.758C654.599 387.891 657.234 386.744 658.726 385.082L655.75 382.409Z" fill="#222829"/>
<path fill-rule="evenodd" clip-rule="evenodd" d="M368.215 337.005L173.215 369.005L169.215 378.005L368.215 358.005V337.005Z" fill="#222829" stroke="#222829" stroke-width="4" stroke-linecap="round" stroke-linejoin="round"/>
<path fill-rule="evenodd" clip-rule="evenodd" d="M367.215 19.001L370.629 19C395.413 19.031 479.115 20.555 553.215 69.005C631.215 120.005 678.215 251.005 678.215 389.005C678.215 527.005 651.215 586.339 601.215 701.005C601.215 701.005 644.215 490.719 644.215 467.005C644.215 396.005 633.215 335.005 588.215 289.005C575.237 275.739 555.565 261.074 529.2 245.011C507.492 290.476 482.497 321.807 454.215 339.005C380.215 384.005 331.215 354.005 297.215 389.005C274.548 412.339 255.215 438.672 239.215 468.005V439.005L238.294 437.223C223.241 408.411 207.548 394.005 191.215 394.005C166.215 394.005 112.215 401.005 112.215 467.005C112.215 511.005 138.882 537.672 192.215 547.005C205.9 574.665 221.566 597.665 239.215 616.005C251.324 628.589 112.215 566.005 94.2148 467.005C76.2148 368.005 81.8758 299.703 112.215 227.005C142.866 153.558 177.278 105.476 238.497 65.336C283.134 36.069 329.264 19.001 367.215 19.001Z" fill="#222829" stroke="#222829" stroke-width="12" stroke-linecap="round" stroke-linejoin="round"/>
</svg>
