<svg width="699" height="699" viewBox="0 0 699 699" fill="none" xmlns="http://www.w3.org/2000/svg">
<path fill-rule="evenodd" clip-rule="evenodd" d="M366 200C498.548 200 606 307.452 606 440C606 572.548 498.548 680 366 680C269.133 680 185.669 622.612 147.753 539.981L147.323 539.989L146 540C101.817 540 66 504.183 66 460C66 420.135 95.1588 387.08 133.312 381.001C159.599 276.979 253.81 200 366 200ZM129.859 445.545L138.141 476.455Z" fill="white"/>
<path d="M129.859 445.545L138.141 476.455M366 200C498.548 200 606 307.452 606 440C606 572.548 498.548 680 366 680C269.133 680 185.669 622.612 147.753 539.981L147.323 539.989L146 540C101.817 540 66 504.183 66 460C66 420.135 95.1588 387.08 133.312 381.001C159.599 276.979 253.81 200 366 200Z" stroke="black" stroke-width="24" stroke-linecap="round" stroke-linejoin="round"/>
<path fill-rule="evenodd" clip-rule="evenodd" d="M482.516 422C482.516 422 498.222 424.637 506 430.977C519.06 441.622 527.906 462.256 526.774 474.58C524.065 504.076 478 505.359 478 505.359C478 505.359 534 510.489 534 474.58C534 458.222 523.433 440.065 506 429.695C497.922 424.889 482.516 422 482.516 422Z" fill="black" stroke="black" stroke-width="6" stroke-linecap="round" stroke-linejoin="round"/>
<path d="M339.348 603.386C339.348 603.386 333.053 593.522 337.446 580.4C341.839 567.278 353.439 561.299 353.439 561.299" stroke="black" stroke-width="6" stroke-linecap="round" stroke-linejoin="round"/>
<path fill-rule="evenodd" clip-rule="evenodd" d="M379.613 587.395L449.22 573.181L477.717 572.83L498.424 567.139L522.54 569.846C522.54 569.846 505.891 576.298 473.869 580.23C441.847 584.161 379.613 587.395 379.613 587.395Z" stroke="black" stroke-width="12" stroke-linecap="round" stroke-linejoin="round"/>
<path d="M445 624C445 624 460.338 625.035 468 624C475.662 622.965 482 619 482 619" stroke="black" stroke-width="6" stroke-linecap="round" stroke-linejoin="round"/>
<path fill-rule="evenodd" clip-rule="evenodd" d="M404 337C417.255 337 428 347.745 428 361C428 374.255 417.255 385 404 385C390.745 385 380 374.255 380 361C380 347.745 390.745 337 404 337ZM542 337C555.255 337 566 347.745 566 361C566 374.255 555.255 385 542 385C528.745 385 518 374.255 518 361C518 347.745 528.745 337 542 337ZM396 347C392.686 347 390 349.686 390 353C390 356.314 392.686 359 396 359C399.314 359 402 356.314 402 353C402 349.686 399.314 347 396 347ZM534 347C530.686 347 528 349.686 528 353C528 356.314 530.686 359 534 359C537.314 359 540 356.314 540 353C540 349.686 537.314 347 534 347Z" fill="black"/>
<path fill-rule="evenodd" clip-rule="evenodd" d="M496.391 303.335C499.391 298.335 556.391 280.335 576.391 283.335C596.391 286.335 625.391 312.335 625.391 312.335C625.391 312.335 598.391 301.335 573.391 301.335C548.391 301.335 513.391 319.335 513.391 319.335C513.391 319.335 493.391 308.335 496.391 303.335Z" fill="black" stroke="black" stroke-width="4" stroke-linecap="round" stroke-linejoin="round"/>
<path fill-rule="evenodd" clip-rule="evenodd" d="M449 303.335C446 298.335 389 280.335 369 283.335C349 286.335 320 312.335 320 312.335C320 312.335 347 301.335 372 301.335C397 301.335 432 319.335 432 319.335C432 319.335 452 308.335 449 303.335Z" fill="black" stroke="black" stroke-width="4" stroke-linecap="round" stroke-linejoin="round"/>
<path fill-rule="evenodd" clip-rule="evenodd" d="M324.493 319.428C301.636 336.358 315.604 412.544 371.477 412.544C427.35 412.544 464.149 351.7 452.747 329.102C441.345 306.505 347.35 302.498 324.493 319.428Z" stroke="black" stroke-width="8" stroke-linecap="round" stroke-linejoin="round"/>
<path fill-rule="evenodd" clip-rule="evenodd" d="M623.375 319.428C646.233 336.358 632.264 412.544 576.391 412.544C520.518 412.544 483.719 351.7 495.121 329.102C506.523 306.505 600.518 302.498 623.375 319.428Z" stroke="black" stroke-width="8" stroke-linecap="round" stroke-linejoin="round"/>
<path d="M428.286 314.442H519.714" stroke="black" stroke-width="8" stroke-linecap="round" stroke-linejoin="round"/>
<path d="M453.683 330.163H494.318" stroke="black" stroke-width="8" stroke-linecap="round" stroke-linejoin="round"/>
<path d="M314 342L127.827 376.771" stroke="black" stroke-width="8" stroke-linecap="round" stroke-linejoin="round"/>
<path fill-rule="evenodd" clip-rule="evenodd" d="M126.971 385.825C111.873 388.272 92.5672 375.108 80.9372 353.237C67.5842 328.123 69.4093 301.039 85.0142 292.742C86.3052 292.055 87.6512 291.519 89.0402 291.126C77.3532 274.821 76.4712 250.447 88.5652 229.5C94.5692 219.1 102.904 211.048 112.219 205.817C109.44 190.838 111.642 175.211 119.597 161.432C127.987 146.9 141.357 136.882 156.718 132.056C157.667 123.497 160.329 115.076 164.847 107.25C177.211 85.836 200.387 74.224 224.812 74.583C232.178 49.269 253.208 31 278 31C288.193 31 297.75 34.088 305.982 39.483C318.406 26.889 336.217 19 356 19C377.277 19 396.272 28.126 408.741 42.414C419.992 35.179 433.274 31 447.5 31C488.093 31 521 65.026 521 107L520.998 107.645C523.603 107.22 526.277 107 529 107C557.167 107 580 130.505 580 159.5C580 168.535 577.783 177.037 573.878 184.461C595.167 214.857 587.207 242.37 550 267C528.607 281.162 438.369 286.353 384.694 281.999C345.12 278.789 262.105 251.958 246 249C238.393 247.603 249.06 257.603 278 279C243.921 306.157 226.711 325.618 226.37 337.385L226.365 337.739C226.365 349.233 217.925 393.725 201.044 471.214L200 476L162.117 385.825H126.971Z" fill="black" stroke="black" stroke-width="12" stroke-linecap="round" stroke-linejoin="round"/>
</svg>
