<svg width="39" height="40" viewBox="0 0 39 40" fill="none" xmlns="http://www.w3.org/2000/svg">
<g clip-path="url(#clip0_601_1125)">
<path d="M11.55 39.1C10.65 39.1 9.89167 38.7833 9.275 38.15C8.65833 37.5167 8.35 36.75 8.35 35.85C8.35 34.95 8.65833 34.1917 9.275 33.575C9.89167 32.9583 10.65 32.65 11.55 32.65C12.4167 32.65 13.175 32.9667 13.825 33.6C14.475 34.2333 14.8 35 14.8 35.9C14.8 36.7667 14.4833 37.5167 13.85 38.15C13.2167 38.7833 12.45 39.1 11.55 39.1V39.1ZM30.95 39.1C30.05 39.1 29.2917 38.7833 28.675 38.15C28.0583 37.5167 27.75 36.75 27.75 35.85C27.75 34.95 28.0583 34.1917 28.675 33.575C29.2917 32.9583 30.05 32.65 30.95 32.65C31.8167 32.65 32.5667 32.9667 33.2 33.6C33.8333 34.2333 34.15 35 34.15 35.9C34.15 36.7667 33.8417 37.5167 33.225 38.15C32.6083 38.7833 31.85 39.1 30.95 39.1V39.1ZM6.2 28.8L11.7 18.75L4.15 2.75H0.4V0.5H5.6L7.5 4.45H38.85L29.95 20.65H13.2L10 26.5H34.15V28.8H6.2Z" fill="#793CFB"/>
</g>
<defs>
<clipPath id="clip0_601_1125">
<rect width="39" height="40" fill="white"/>
</clipPath>
</defs>
</svg>
