<svg width="22" height="22" viewBox="0 0 22 22" fill="none" xmlns="http://www.w3.org/2000/svg">
<path d="M22 4.21673C21.175 4.5834 20.35 4.8584 19.4333 4.95007C20.35 4.40007 21.0833 3.4834 21.45 2.47507C20.5333 3.02507 19.6167 3.39173 18.6083 3.57507C17.7833 2.6584 16.5917 2.1084 15.3083 2.1084C12.375 2.1084 10.2667 4.8584 10.9083 7.6084C7.05833 7.42507 3.75833 5.59173 1.55833 2.84173C0.366667 4.95007 0.916667 7.6084 2.93333 8.89173C2.2 8.89173 1.46667 8.7084 0.916667 8.34173C0.825 10.4501 2.38333 12.3751 4.49167 12.8334C3.85 13.0167 3.11667 13.0167 2.475 12.9251C3.025 14.7584 4.675 16.0417 6.69167 16.0417C4.76667 17.5084 2.38333 18.1501 0 17.8751C2.01667 19.1584 4.4 19.8917 6.875 19.8917C15.2167 19.8917 19.9833 12.8334 19.7083 6.5084C20.625 5.86673 21.3583 5.04173 22 4.21673Z" fill="#1D1D1F"/>
</svg>
