<svg width="692" height="692" viewBox="0 0 692 692" fill="none" xmlns="http://www.w3.org/2000/svg">
<path fill-rule="evenodd" clip-rule="evenodd" d="M361 139C493.548 139 601 246.451 601 379C601 402.16 612.235 426.244 606.453 448.979C592.584 503.518 501 639 437 659C342.515 688.526 202.476 576.01 149.19 478.585C146.498 478.859 143.765 479 141 479C96.8172 479 61 443.182 61 399C61 359.135 90.1588 326.08 128.312 320C154.599 215.979 248.81 139 361 139ZM124.859 384.545L133.141 415.454Z" fill="white"/>
<path d="M124.859 384.545L133.141 415.454M361 139C493.548 139 601 246.451 601 379C601 402.16 612.235 426.244 606.453 448.979C592.584 503.518 501 639 437 659C342.515 688.526 202.476 576.01 149.19 478.585C146.498 478.859 143.765 479 141 479C96.8172 479 61 443.182 61 399C61 359.135 90.1588 326.08 128.312 320C154.599 215.979 248.81 139 361 139Z" stroke="#222829" stroke-width="24" stroke-linecap="round" stroke-linejoin="round"/>
<path fill-rule="evenodd" clip-rule="evenodd" d="M477.516 361C477.516 361 493.222 363.637 501 369.977C514.06 380.622 522.906 401.256 521.774 413.58C519.065 443.076 473 444.359 473 444.359C473 444.359 529 449.489 529 413.58C529 397.222 518.433 379.065 501 368.695C492.922 363.889 477.516 361 477.516 361Z" fill="#222829" stroke="#222829" stroke-width="6" stroke-linecap="round" stroke-linejoin="round"/>
<path d="M334.348 542.386C334.348 542.386 328.053 532.522 332.446 519.4C336.839 506.278 348.439 500.299 348.439 500.299" stroke="#222829" stroke-width="6" stroke-linecap="round" stroke-linejoin="round"/>
<path fill-rule="evenodd" clip-rule="evenodd" d="M374.613 526.395L444.22 512.181L472.717 511.83L493.424 506.139L517.54 508.846C517.54 508.846 500.891 515.298 468.869 519.23C436.847 523.161 374.613 526.395 374.613 526.395Z" stroke="#222829" stroke-width="12" stroke-linecap="round" stroke-linejoin="round"/>
<path d="M440 563C440 563 455.338 564.035 463 563C470.662 561.965 477 558 477 558" stroke="#222829" stroke-width="6" stroke-linecap="round" stroke-linejoin="round"/>
<path fill-rule="evenodd" clip-rule="evenodd" d="M363 288.156C363 288.156 391.569 314.438 415.169 309.907C438.769 305.375 428.832 280 428.832 280C428.832 280 443.738 306.282 422.622 314.438C401.506 322.595 363 288.156 363 288.156Z" fill="#222829" stroke="#222829" stroke-width="6" stroke-linecap="round" stroke-linejoin="round"/>
<path fill-rule="evenodd" clip-rule="evenodd" d="M501 288.156C501 288.156 529.569 314.438 553.169 309.907C576.769 305.375 566.832 280 566.832 280C566.832 280 581.738 306.282 560.622 314.438C539.506 322.595 501 288.156 501 288.156Z" fill="#222829" stroke="#222829" stroke-width="6" stroke-linecap="round" stroke-linejoin="round"/>
<path fill-rule="evenodd" clip-rule="evenodd" d="M491.391 242.335C494.391 237.335 551.391 219.335 571.391 222.335C591.391 225.335 620.391 251.335 620.391 251.335C620.391 251.335 593.391 240.335 568.391 240.335C543.391 240.335 508.391 258.335 508.391 258.335C508.391 258.335 488.391 247.335 491.391 242.335Z" fill="#222829" stroke="#222829" stroke-width="4" stroke-linecap="round" stroke-linejoin="round"/>
<path fill-rule="evenodd" clip-rule="evenodd" d="M444 242.335C441 237.335 384 219.335 364 222.335C344 225.335 315 251.335 315 251.335C315 251.335 342 240.335 367 240.335C392 240.335 427 258.335 427 258.335C427 258.335 447 247.335 444 242.335Z" fill="#222829" stroke="#222829" stroke-width="4" stroke-linecap="round" stroke-linejoin="round"/>
<path fill-rule="evenodd" clip-rule="evenodd" d="M541.472 251.158C576.209 246.19 618.963 250.537 625.198 256.746C631.433 262.956 631.214 300.353 612.712 320.845C601.077 333.732 537.381 334.538 510.986 326.918C502.397 324.438 495.052 313.396 488.199 303.093C481.566 293.122 475.394 283.843 469 283.69C462.575 283.537 456.416 292.89 449.768 302.986C442.965 313.317 435.65 324.425 427.014 326.918C400.62 334.538 338.918 335.725 327.289 322.845C308.787 302.353 306.568 262.956 312.803 256.746C319.038 250.537 361.791 246.19 396.528 251.158C431.266 256.125 446.492 259.934 453.533 262.029C457.93 263.338 468.435 263.892 468.435 263.892L469 263.905L469.566 263.912C475.104 263.965 480.071 263.338 484.468 262.029C491.509 259.934 506.735 256.125 541.472 251.158ZM327.054 262.71C307.459 272.404 323.273 306.047 331.977 315.74C340.682 325.434 417.217 323.153 427.905 318.021C438.594 312.889 453.642 287.651 445.626 273.395C437.61 259.14 355.556 252.446 327.054 262.71ZM606.023 315.74C614.728 306.047 630.542 272.404 610.947 262.71C582.444 252.446 500.391 259.14 492.375 273.395C484.358 287.651 499.407 312.889 510.095 318.021C520.784 323.153 597.319 325.434 606.023 315.74Z" fill="#222829"/>
<path d="M541.472 251.158L541.755 253.137L541.472 251.158ZM612.712 320.845L614.196 322.186L612.712 320.845ZM510.986 326.918L510.431 328.84L510.986 326.918ZM488.199 303.093L486.534 304.201L488.199 303.093ZM469 283.69L469.048 281.691L469 283.69ZM449.768 302.986L448.098 301.886L449.768 302.986ZM427.014 326.918L427.569 328.84L427.014 326.918ZM327.289 322.845L328.773 321.505L327.289 322.845ZM312.803 256.746L311.392 255.329L312.803 256.746ZM396.528 251.158L396.245 253.137L396.528 251.158ZM453.533 262.029L454.103 260.112L453.533 262.029ZM468.435 263.892L468.33 265.889C468.35 265.89 468.371 265.891 468.391 265.892L468.435 263.892ZM469 263.905L468.957 265.904C468.962 265.904 468.967 265.904 468.973 265.904L469 263.905ZM469.566 263.912L469.539 265.912H469.547L469.566 263.912ZM484.468 262.029L485.038 263.946L484.468 262.029ZM331.977 315.74L330.489 317.077L331.977 315.74ZM327.054 262.71L326.376 260.829C326.305 260.854 326.235 260.884 326.167 260.918L327.054 262.71ZM445.626 273.395L443.883 274.376L445.626 273.395ZM610.947 262.71L611.833 260.918C611.765 260.884 611.696 260.854 611.624 260.829L610.947 262.71ZM606.023 315.74L607.511 317.077L606.023 315.74ZM492.375 273.395L490.631 272.415L492.375 273.395ZM626.609 255.329C625.526 254.251 623.856 253.383 621.951 252.652C619.994 251.901 617.574 251.216 614.803 250.602C609.257 249.373 602.145 248.392 594.18 247.766C578.252 246.515 558.729 246.669 541.189 249.178L541.755 253.137C558.952 250.678 578.175 250.522 593.867 251.754C601.712 252.371 608.628 253.331 613.937 254.507C616.594 255.096 618.808 255.731 620.518 256.387C622.281 257.063 623.31 257.689 623.786 258.164L626.609 255.329ZM614.196 322.186C623.821 311.526 628.599 296.606 630.216 283.688C631.027 277.209 631.054 271.146 630.465 266.26C630.17 263.819 629.716 261.629 629.107 259.808C628.51 258.026 627.708 256.424 626.609 255.329L623.786 258.164C624.246 258.622 624.801 259.546 625.314 261.078C625.813 262.571 626.221 264.482 626.493 266.74C627.038 271.252 627.024 276.984 626.247 283.191C624.687 295.648 620.105 309.672 611.227 319.505L614.196 322.186ZM510.431 328.84C523.926 332.736 546.693 334.434 567.467 333.57C577.876 333.137 587.879 332.058 596.051 330.255C600.137 329.354 603.81 328.263 606.868 326.958C609.9 325.664 612.466 324.102 614.196 322.186L611.227 319.505C610.049 320.81 608.079 322.092 605.298 323.279C602.542 324.455 599.124 325.481 595.19 326.349C587.322 328.084 577.569 329.146 567.301 329.573C546.719 330.429 524.441 328.721 511.541 324.997L510.431 328.84ZM486.534 304.201C489.944 309.327 493.564 314.775 497.428 319.247C501.266 323.688 505.566 327.435 510.431 328.84L511.541 324.997C507.817 323.922 504.15 320.907 500.455 316.632C496.786 312.387 493.307 307.162 489.864 301.986L486.534 304.201ZM468.953 285.69C471.234 285.744 473.872 287.485 477.012 291.035C480.073 294.495 483.193 299.179 486.534 304.201L489.864 301.986C486.572 297.036 483.29 292.094 480.008 288.384C476.805 284.763 473.16 281.789 469.048 281.691L468.953 285.69ZM451.438 304.086C454.788 299 457.906 294.272 460.964 290.821C464.107 287.276 466.712 285.636 468.953 285.69L469.048 281.691C464.863 281.591 461.177 284.551 457.971 288.168C454.682 291.879 451.396 296.876 448.098 301.886L451.438 304.086ZM427.569 328.84C432.461 327.427 436.765 323.658 440.596 319.194C444.453 314.699 448.053 309.226 451.438 304.086L448.098 301.886C444.679 307.076 441.221 312.323 437.561 316.589C433.874 320.885 430.204 323.916 426.46 324.997L427.569 328.84ZM325.804 324.186C327.537 326.104 330.075 327.636 333.062 328.877C336.072 330.128 339.674 331.141 343.669 331.947C351.661 333.56 361.419 334.387 371.579 334.569C391.866 334.932 414.109 332.726 427.569 328.84L426.46 324.997C413.525 328.731 391.72 330.928 371.65 330.569C361.631 330.39 352.134 329.575 344.461 328.026C340.624 327.252 337.291 326.303 334.598 325.184C331.882 324.055 329.948 322.806 328.773 321.505L325.804 324.186ZM311.392 255.329C310.26 256.456 309.493 258.132 308.957 259.968C308.407 261.851 308.037 264.124 307.84 266.658C307.446 271.728 307.73 278.035 308.794 284.753C310.914 298.142 316.194 313.541 325.804 324.186L328.773 321.505C319.882 311.657 314.801 297.111 312.745 284.127C311.721 277.658 311.463 271.67 311.828 266.967C312.011 264.614 312.346 262.63 312.796 261.09C313.26 259.503 313.787 258.589 314.214 258.164L311.392 255.329ZM396.812 249.178C379.271 246.669 359.749 246.515 343.821 247.766C335.856 248.392 328.744 249.373 323.198 250.602C320.427 251.216 318.007 251.901 316.049 252.652C314.145 253.383 312.474 254.251 311.392 255.329L314.214 258.164C314.69 257.689 315.72 257.063 317.482 256.387C319.192 255.731 321.407 255.096 324.063 254.507C329.372 253.331 336.289 252.371 344.134 251.754C359.826 250.522 379.048 250.678 396.245 253.137L396.812 249.178ZM454.103 260.112C446.933 257.979 431.602 254.153 396.812 249.178L396.245 253.137C430.929 258.098 446.05 261.889 452.963 263.946L454.103 260.112ZM468.435 263.892C468.54 261.895 468.541 261.895 468.541 261.895H468.54C468.54 261.895 468.54 261.895 468.539 261.895C468.538 261.895 468.537 261.895 468.534 261.895C468.53 261.894 468.523 261.894 468.513 261.893C468.495 261.892 468.466 261.891 468.428 261.889C468.352 261.885 468.24 261.878 468.095 261.869C467.804 261.852 467.382 261.826 466.862 261.79C465.821 261.718 464.388 261.609 462.822 261.46C459.624 261.156 456.087 260.703 454.103 260.112L452.963 263.946C455.375 264.664 459.29 265.142 462.443 265.442C464.053 265.596 465.522 265.707 466.588 265.78C467.121 265.817 467.554 265.844 467.855 265.862C468.006 265.871 468.123 265.878 468.204 265.882C468.244 265.885 468.275 265.886 468.296 265.888C468.307 265.888 468.315 265.889 468.32 265.889C468.323 265.889 468.325 265.889 468.327 265.889C468.328 265.889 468.328 265.889 468.329 265.889C468.329 265.889 468.33 265.889 468.435 263.892ZM469.044 261.905L468.479 261.893L468.391 265.892L468.957 265.904L469.044 261.905ZM469.594 261.912L469.028 261.905L468.973 265.904L469.539 265.912L469.594 261.912ZM483.897 260.112C479.726 261.353 474.963 261.964 469.586 261.912L469.547 265.912C475.244 265.967 480.415 265.322 485.038 263.946L483.897 260.112ZM541.189 249.178C506.399 254.153 491.067 257.979 483.897 260.112L485.038 263.946C491.95 261.889 507.071 258.098 541.755 253.137L541.189 249.178ZM333.465 314.404C329.351 309.822 323.368 299.293 320.848 288.76C319.592 283.508 319.242 278.439 320.276 274.196C321.289 270.035 323.63 266.635 327.941 264.503L326.167 260.918C320.68 263.632 317.65 268.073 316.389 273.249C315.149 278.343 315.623 284.109 316.958 289.691C319.622 300.826 325.899 311.965 330.489 317.077L333.465 314.404ZM427.039 316.218C425.98 316.727 423.863 317.289 420.735 317.823C417.673 318.345 413.83 318.812 409.454 319.201C400.706 319.979 389.925 320.44 379.197 320.44C368.462 320.44 357.836 319.978 349.383 318.923C345.152 318.395 341.522 317.725 338.718 316.911C335.81 316.067 334.149 315.166 333.465 314.404L330.489 317.077C331.982 318.739 334.616 319.886 337.602 320.753C340.691 321.649 344.552 322.351 348.888 322.893C357.567 323.976 368.375 324.44 379.197 324.44C390.027 324.44 400.928 323.975 409.809 323.185C414.247 322.79 418.205 322.312 421.408 321.766C424.545 321.23 427.158 320.599 428.771 319.824L427.039 316.218ZM443.883 274.376C447.399 280.629 445.989 289.71 441.969 298.28C439.993 302.493 437.454 306.426 434.781 309.6C432.084 312.801 429.354 315.107 427.039 316.218L428.771 319.824C431.8 318.37 434.96 315.596 437.84 312.177C440.744 308.729 443.47 304.5 445.591 299.979C449.763 291.084 451.869 280.417 447.369 272.415L443.883 274.376ZM327.732 264.592C334.576 262.127 344.812 260.633 356.578 260.043C368.302 259.455 381.39 259.771 393.85 260.851C406.318 261.931 418.094 263.769 427.21 266.201C431.772 267.418 435.606 268.768 438.507 270.213C441.475 271.691 443.183 273.131 443.883 274.376L447.369 272.415C446.065 270.096 443.455 268.209 440.29 266.632C437.059 265.023 432.944 263.591 428.241 262.336C418.827 259.824 406.804 257.958 394.195 256.866C381.577 255.772 368.306 255.449 356.378 256.048C344.492 256.644 333.784 258.161 326.376 260.829L327.732 264.592ZM610.06 264.503C614.37 266.635 616.712 270.035 617.725 274.196C618.758 278.439 618.409 283.508 617.152 288.76C614.632 299.293 608.65 309.822 604.535 314.404L607.511 317.077C612.101 311.965 618.378 300.826 621.043 289.691C622.378 284.109 622.852 278.343 621.611 273.249C620.351 268.073 617.321 263.632 611.833 260.918L610.06 264.503ZM494.118 274.376C494.818 273.131 496.526 271.691 499.494 270.213C502.395 268.768 506.228 267.418 510.791 266.201C519.907 263.769 531.682 261.931 544.151 260.851C556.611 259.771 569.698 259.455 581.422 260.043C593.189 260.633 603.425 262.127 610.269 264.592L611.624 260.829C604.217 258.161 593.508 256.644 581.623 256.048C569.695 255.449 556.424 255.772 543.806 256.866C531.196 257.958 519.174 259.824 509.76 262.336C505.057 263.591 500.942 265.023 497.71 266.632C494.545 268.209 491.935 270.096 490.631 272.415L494.118 274.376ZM510.961 316.218C508.646 315.107 505.917 312.801 503.22 309.6C500.546 306.426 498.007 302.493 496.031 298.28C492.011 289.71 490.601 280.629 494.118 274.376L490.631 272.415C486.132 280.417 488.238 291.084 492.41 299.979C494.53 304.5 497.257 308.729 500.16 312.177C503.041 315.596 506.2 318.37 509.23 319.824L510.961 316.218ZM604.535 314.404C603.852 315.166 602.19 316.067 599.283 316.911C596.479 317.725 592.849 318.395 588.618 318.923C580.165 319.978 569.538 320.44 558.803 320.44C548.075 320.44 537.294 319.979 528.546 319.201C524.171 318.812 520.327 318.345 517.265 317.823C514.137 317.289 512.02 316.727 510.961 316.218L509.23 319.824C510.843 320.599 513.455 321.23 516.593 321.766C519.796 322.312 523.753 322.79 528.192 323.185C537.073 323.975 547.973 324.44 558.803 324.44C569.626 324.44 580.433 323.976 589.113 322.893C593.448 322.351 597.309 321.649 600.398 320.753C603.384 319.886 606.019 318.739 607.511 317.077L604.535 314.404Z" fill="#222829"/>
<path fill-rule="evenodd" clip-rule="evenodd" d="M317 269L122 301L118 310L317 290V269Z" fill="#222829" stroke="#222829" stroke-width="4" stroke-linecap="round" stroke-linejoin="round"/>
<path fill-rule="evenodd" clip-rule="evenodd" d="M468 37.3077C496.43 46.4457 525 57.9997 533 95.9997C539.842 128.499 540 138 518 206C511.333 190.667 478.333 182 419 180C390.16 179.028 357.044 163.964 324 166C299.467 167.511 260.899 180.685 208.296 205.522L209.068 208.707C217.266 242.685 221.365 265.363 221.365 276.739C221.365 287.77 213.591 329.192 198.044 401.005L195 415L157.117 324.825H116.146C100.78 267.747 97.106 228.653 105.123 207.542C113.14 186.431 125.099 171.251 141 162C160 127 299.357 88.3297 323.118 84.2377C324.772 83.9527 326.385 83.7087 327.959 83.5047L329.461 82.6237C337.552 77.8377 342.95 73.9847 348.924 70.1857C321.292 73.1577 280.984 86.1327 228.002 109.111C275.763 77.8577 319.246 61.8277 358.453 61.0197C360.82 60.9707 363.136 60.9727 365.402 61.0257C367.424 60.0547 369.611 59.0487 372 57.9997C377.899 55.4097 385.081 53.3787 393.106 51.9397C365.526 49.8387 321.546 57.6987 261.166 75.5207C312.379 50.3227 357.492 39.7107 396.505 43.6867C406.797 44.7357 416.013 46.6307 424.151 49.3707C447.568 49.3597 473.007 53.2627 493.64 61.5887C486.176 54.8437 477.63 49.7507 468 46.3077C442.258 37.1047 395.925 35.1047 329 40.3077C384.333 26.3077 430.667 25.3077 468 37.3077Z" fill="#222829" stroke="#222829" stroke-width="12" stroke-linecap="round" stroke-linejoin="round"/>
</svg>
