<svg width="42" height="40" viewBox="0 0 42 40" fill="none" xmlns="http://www.w3.org/2000/svg">
<g clip-path="url(#clip0_601_927)">
<path d="M14.7 39.75L11.15 33.65L4.1 32.2L4.85 25.25L0.349998 20L4.85 14.8L4.1 7.85L11.15 6.4L14.7 0.25L21 3.1L27.3 0.25L30.9 6.4L37.9 7.85L37.15 14.8L41.65 20L37.15 25.25L37.9 32.2L30.9 33.65L27.3 39.75L21 36.9L14.7 39.75ZM18.85 26.05L29.5 15.5L27.8 13.95L18.85 22.85L14.25 18.05L12.5 19.75L18.85 26.05Z" fill="#DDE2E5"/>
</g>
<defs>
<clipPath id="clip0_601_927">
<rect width="42" height="40" fill="white"/>
</clipPath>
</defs>
</svg>
